 <svg width="26" height="26" viewBox="0 0 512 512" fill="none" xmlns="http://www.w3.org/2000/svg">
              <g clip-path="url(#clip0_3772_2676)">
                <path d="M449.32 94.88C439.999 102.394 429.93 108.93 419.272 114.384C427.208 138.42 432.084 166.652 432.88 196.928H495.808C493.768 157.812 477.096 122.66 451.136 96.692C450.534 96.085 449.928 95.481 449.32 94.88ZM495.812 212.916H432.884C432.204 242.056 427.556 269.268 420.072 292.736C419.844 293.648 419.5 294.552 419.164 295.46C429.872 300.886 439.98 307.424 449.32 314.964C458.882 305.731 467.193 295.285 474.04 283.892C487.054 262.397 494.534 238.011 495.812 212.916ZM437.08 325.616C429.712 319.836 421.884 314.848 413.612 310.424C405.676 329.244 395.58 344.78 384.128 355.664C380.956 358.728 375.964 358.612 372.9 355.436C369.836 352.26 369.956 347.16 373.128 344.1C383.22 334.572 391.956 320.852 399.096 303.848C398.416 303.62 397.736 303.396 397.056 303.056C382.265 297.493 366.693 294.279 350.908 293.532V295.684C350.908 300.104 347.392 303.736 342.972 303.736C338.552 303.736 334.916 300.108 334.916 295.684V212.916H297.384C292.964 212.916 289.448 209.288 289.448 204.864C289.448 200.44 292.964 196.928 297.384 196.928H334.916V132.412C322.332 131.732 309.972 129.804 298.18 126.512C292.489 124.969 286.887 123.114 281.4 120.956C273.464 145.108 268.932 173.908 268.932 204.864C268.923 206.997 268.071 209.04 266.562 210.549C265.053 212.057 263.009 212.908 260.876 212.916C256.568 212.916 252.94 209.288 252.94 204.864C252.94 171.528 258.04 140.46 266.656 114.384C263.293 112.599 259.967 110.745 256.68 108.824C255.772 108.302 254.977 107.605 254.342 106.772C253.707 105.94 253.244 104.99 252.98 103.976C252.717 102.963 252.658 101.907 252.807 100.871C252.956 99.8343 253.31 98.838 253.848 97.94C256.116 94.084 260.996 92.836 264.736 95.104C267.228 96.576 269.72 98.052 272.328 99.3C273.997 95.248 275.851 91.2745 277.884 87.392C283.44 76.284 290.016 66.64 297.156 58.816C284.04 62.9619 271.534 68.8347 259.968 76.28C258.19 77.4095 256.038 77.7927 253.979 77.3464C251.92 76.9002 250.119 75.6605 248.968 73.896C246.588 70.152 247.608 65.164 251.348 62.784C264.915 54.0616 279.65 47.3051 295.112 42.716C310.661 38.1981 326.772 35.9073 342.964 35.912C389.676 35.912 431.856 54.732 462.472 85.348C493.08 115.96 512.02 158.256 512.02 204.856C512.02 236.828 503.176 266.648 487.756 292.048C471.842 318.449 449.029 340.011 421.772 354.412C417.804 356.564 413.036 354.98 411 351.124C408.964 347.268 410.428 342.392 414.288 340.356C421.204 336.732 438.556 325.052 437.08 325.616ZM388.772 58.82C395.92 66.644 402.38 76.284 408.044 87.396C409.972 91.252 411.788 95.22 413.608 99.304C421.858 94.9739 429.711 89.9265 437.076 84.22C422.615 72.9458 406.257 64.3442 388.772 58.82ZM404.54 288.88L404.876 287.972C411.908 266.088 416.212 240.464 416.9 212.912H350.908V277.428C368.633 278.305 386.113 281.938 402.72 288.196C403.4 288.424 403.968 288.652 404.54 288.88ZM416.9 196.924C416.212 168.916 411.792 143.064 404.54 120.956C403.968 121.184 403.288 121.408 402.72 121.636C386.115 127.899 368.634 131.534 350.908 132.408V196.924H416.9ZM350.908 52.812V116.308C366.699 115.524 382.27 112.273 397.056 106.672C397.736 106.444 398.416 106.22 398.976 105.992C397.435 102.142 395.734 98.3591 393.876 94.652C382.196 71.86 367.236 56.668 350.908 52.812ZM334.916 116.308V52.812C318.588 56.668 303.628 71.86 292.056 94.652C290.207 98.3795 288.469 102.161 286.844 105.992C291.944 107.916 297.048 109.732 302.376 111.092C312.804 114.04 323.688 115.744 334.916 116.308Z" fill="black" />
                <path d="M98.7361 229.808L114.836 280.488L145.676 258.04L111.092 219.148L98.7361 229.808ZM118.008 202.82L157.464 247.268L196.808 202.82L196.92 202.708C197.594 201.903 198.424 201.242 199.359 200.765C200.295 200.287 201.316 200.003 202.364 199.929C203.411 199.855 204.463 199.993 205.456 200.335C206.449 200.676 207.363 201.214 208.144 201.916L229.576 220.4L280.94 242.848C291.596 247.496 299.988 254.868 305.768 263.936C311.668 273.232 314.84 284.116 314.84 295.684V324.824C314.833 326.956 313.983 329 312.475 330.508C310.967 332.016 308.925 332.867 306.792 332.876C302.48 332.876 298.856 329.248 298.856 324.824V295.684C298.856 287.068 296.592 279.128 292.396 272.556C288.2 266.092 282.192 260.876 274.592 257.472L230.148 238.084L211.78 295.908C210.192 301.124 203.844 303.052 199.532 299.876L165.404 275.044V330.828C165.404 335.248 161.892 338.88 157.468 338.88C155.336 338.871 153.293 338.02 151.785 336.512C150.278 335.004 149.427 332.96 149.42 330.828V275.048L115.404 299.88C115.404 299.88 113.248 301.012 113.024 301.012C112.034 301.339 110.989 301.465 109.95 301.385C108.911 301.305 107.897 301.02 106.969 300.546C106.041 300.071 105.216 299.417 104.542 298.622C103.869 297.827 103.359 296.905 103.044 295.912L84.6761 238.088L40.2281 257.476C32.6321 260.88 26.6241 266.092 22.5401 272.56C18.2321 279.136 15.9641 287.072 15.9641 295.688V427.668C15.9641 432.088 12.4481 435.72 8.02807 435.72C3.60807 435.72 -0.0239258 432.092 -0.0239258 427.668V295.684C-0.0239258 284.116 3.15207 273.236 9.04807 263.936C14.8321 254.864 23.3361 247.496 33.8801 242.848L85.2401 220.4L106.668 201.916C107.45 201.215 108.364 200.678 109.358 200.337C110.351 199.996 111.402 199.859 112.45 199.932C113.497 200.006 114.519 200.29 115.455 200.767C116.391 201.244 117.221 201.904 117.896 202.708L118.008 202.82ZM61.7681 357.252C61.7744 355.149 62.6126 353.134 64.0995 351.647C65.5864 350.16 67.6013 349.322 69.7041 349.316C74.1241 349.316 77.7561 352.832 77.7561 357.252V427.664C77.7476 429.797 76.8966 431.84 75.3884 433.348C73.8802 434.856 71.837 435.707 69.7041 435.716C65.3961 435.716 61.7681 432.088 61.7681 427.664V357.252ZM203.728 219.148L169.144 258.04L199.984 280.488L216.084 229.808L203.728 219.148Z" fill="black" />
                <path d="M333.328 344.216H155.996C149.192 344.216 142.616 350.112 141.484 356.684L119.032 484.36C117.9 490.82 121.756 496.036 128.556 496.036H301.92C309.856 496.036 317.452 489.236 318.812 481.524L341.156 353.964C341.292 353.33 341.368 352.684 341.384 352.036C341.384 347.272 337.976 344.216 333.328 344.216ZM239.56 411.676C243.98 411.676 247.612 415.304 247.612 419.728C247.612 424.152 243.984 427.664 239.56 427.664C235.136 427.664 231.624 424.148 231.624 419.728C231.624 415.308 235.136 411.676 239.56 411.676ZM155.996 328.228H333.328C334.804 328.228 336.272 328.34 337.748 328.68C349.428 330.72 357.364 340.36 357.364 352.036C357.364 353.624 357.136 355.1 356.912 356.684L334.576 484.36C331.848 499.552 317.452 512.024 301.92 512.024H128.556C114.044 512.024 102.932 501.028 102.932 486.512C102.932 484.928 103.044 483.336 103.272 481.524L125.72 353.964C128.216 339.792 141.592 328.228 155.996 328.228Z" fill="black" />
                <path d="M114.496 456.124C118.916 456.124 122.548 459.64 122.548 464.06C122.548 464.628 122.436 465.192 122.32 465.76L119.032 484.356C118.92 485.036 118.92 485.828 118.92 486.508C118.92 489.004 119.6 491.156 120.96 492.748C122.208 494.332 124.136 495.352 126.516 495.808C127.084 495.92 127.764 495.92 128.444 496.036L128.556 512.024H53.6041C48.3881 512.024 43.0601 510.552 38.7521 507.716C34.4441 504.88 31.1561 500.8 29.7961 495.356L22.5401 465.988C22.2918 464.968 22.2475 463.909 22.4097 462.872C22.5719 461.835 22.9374 460.84 23.4853 459.944C24.0332 459.049 24.7526 458.271 25.6022 457.654C26.4518 457.038 27.4149 456.595 28.4361 456.352C29.0041 456.124 29.6841 456.124 30.3601 456.124H114.496ZM104.972 472.112H40.4521L45.3281 491.612C45.5561 492.748 46.3481 493.656 47.4841 494.336C49.1841 495.468 51.3361 496.036 53.6041 496.036H104.628C103.476 492.994 102.899 489.765 102.928 486.512C102.928 484.928 103.04 483.336 103.268 481.524L104.972 472.112ZM122.544 188.308L119.824 208.944C119.144 213.364 115.176 216.428 110.864 215.86C106.444 215.18 103.38 211.212 103.948 206.788L108.144 176.176L106.104 174.364C98.6405 167.824 92.7489 159.685 88.8681 150.552C84.9001 141.48 82.9721 131.504 82.9721 120.844V72.428C82.9721 50.772 90.4561 32.74 103.608 19.928C116.648 7.22795 135.244 -0.0240479 157.464 -0.0240479C179.576 -0.0240479 198.172 7.22795 211.212 19.928C224.364 32.74 231.848 50.772 231.848 72.428V120.844C231.848 131.048 230.032 141.14 225.952 150.552C222.072 159.685 216.18 167.825 208.716 174.364L206.676 176.176L210.872 206.788C211.144 208.889 210.584 211.012 209.314 212.707C208.043 214.401 206.161 215.532 204.068 215.86C203.025 216.001 201.964 215.934 200.947 215.662C199.93 215.389 198.977 214.918 198.144 214.274C197.311 213.631 196.614 212.828 196.093 211.913C195.573 210.998 195.239 209.989 195.112 208.944L192.28 188.308C188.826 190.711 185.095 192.691 181.168 194.204C167.9 199.424 146.924 199.424 133.66 194.204C129.731 192.694 125.998 190.714 122.544 188.308ZM99.1881 67.212C107.464 69.936 125.268 72.4319 134.452 49.8639C134.852 48.8943 135.44 48.0133 136.181 47.2715C136.922 46.5297 137.803 45.9418 138.773 45.5414C139.742 45.1411 140.781 44.9363 141.83 44.9388C142.879 44.9413 143.917 45.151 144.884 45.556C147.152 46.464 148.396 48.0519 149.304 50.2039C149.416 50.3159 163.932 91.932 215.86 78.892V72.432C215.86 55.312 210.192 41.136 200.1 31.384C190.008 21.52 175.268 15.96 157.468 15.96C139.552 15.96 124.812 21.52 114.72 31.38C105.764 40.112 100.208 52.36 99.1881 67.212ZM215.86 95.332C174.248 104.404 152.024 84.104 141.704 69.368C128.664 86.944 110.636 86.488 98.9561 83.652V120.844C98.9561 129.348 100.544 137.284 103.492 144.204C106.459 151.223 110.996 157.467 116.756 162.456L126.396 171.072C130.592 174.816 134.9 177.532 139.548 179.348C148.844 183.092 165.968 183.092 175.264 179.348C179.912 177.532 184.22 174.812 188.528 171.072L198.168 162.456C203.948 157.356 208.032 151.796 210.98 144.88C214.38 137.508 215.856 128.892 215.856 120.84L215.86 95.332Z" fill="black" />
              </g>
              <defs>
                <clipPath id="clip0_3772_2676">
                  <rect width="512" height="512" fill="white" />
                </clipPath>
              </defs>
            </svg>