<svg width="24" height="24" viewBox="0 0 24 24" fill="none" xmlns="http://www.w3.org/2000/svg">
<g clip-path="url(#clip0_3371_10)">
<path d="M9.08398 9.88184C9.14438 9.87759 9.20543 9.88559 9.2627 9.90527L9.34473 9.94238C9.37019 9.95737 9.39387 9.97535 9.41602 9.99512L10.3682 10.8154L12.6602 11.8174L12.8418 11.9043C13.2536 12.1212 13.5838 12.4317 13.8203 12.8027L13.917 12.9688C14.1298 13.364 14.2431 13.8113 14.2432 14.2822V15.5918C14.2428 15.6833 14.2151 15.7717 14.165 15.8467L14.1074 15.917C14.0211 16.0033 13.9043 16.0522 13.7822 16.0527H13.7812C13.5315 16.0526 13.3252 15.8437 13.3252 15.5908V14.2822C13.3252 13.9129 13.2282 13.5748 13.0508 13.2969V13.2979C12.873 13.024 12.6179 12.8023 12.2939 12.6572V12.6562L10.4004 11.8311L9.60938 14.3223C9.51678 14.6248 9.15186 14.732 8.90527 14.5508V14.5518L7.53027 13.5508V15.8613C7.53009 16.0816 7.37686 16.27 7.16699 16.3135L7.07422 16.3223C6.9825 16.3219 6.89348 16.2944 6.81836 16.2441L6.74805 16.1865C6.66187 16.1001 6.61274 15.9834 6.6123 15.8613V13.5527L5.24414 14.5518L5.23828 14.5557L5.23145 14.5596H5.23047C5.22971 14.56 5.22795 14.5608 5.22656 14.5615C5.22389 14.5629 5.22029 14.5651 5.21582 14.5674C5.20635 14.5723 5.19296 14.5793 5.17969 14.5859C5.16682 14.5924 5.15264 14.599 5.14062 14.6045C5.13468 14.6072 5.12739 14.6109 5.12109 14.6133C5.11811 14.6144 5.11396 14.6158 5.10938 14.6172C5.10811 14.6176 5.10189 14.6179 5.09375 14.6191C5.06988 14.6261 5.04609 14.6328 5.02148 14.6357L4.93262 14.6377C4.9026 14.6354 4.87258 14.6302 4.84375 14.6221L4.76074 14.5898C4.73384 14.5761 4.70811 14.5597 4.68457 14.541L4.62109 14.4785C4.60167 14.4556 4.5838 14.4314 4.56934 14.4053L4.53418 14.3232L3.74219 11.8311L1.84766 12.6582L1.84668 12.6572C1.52351 12.8024 1.26982 13.0242 1.09766 13.2969V13.2988C0.915816 13.5764 0.818416 13.913 0.818359 14.2822V20.2109C0.818246 20.4627 0.616902 20.6729 0.361328 20.6729C0.107827 20.6727 -0.0994928 20.4647 -0.0996094 20.2109V14.2822L-0.0927734 14.082C-0.0607022 13.6185 0.0824623 13.1825 0.323242 12.8027L0.430664 12.6475C0.69474 12.2943 1.05249 12.0069 1.48242 11.8174L3.77441 10.8154L4.72559 9.99609L4.79883 9.94238C4.82471 9.92722 4.85234 9.91506 4.88086 9.90527L4.96875 9.88477C4.99865 9.88085 5.02934 9.8797 5.05957 9.88184L5.14844 9.89746C5.17733 9.9055 5.20556 9.91601 5.23242 9.92969L5.30859 9.97852C5.32969 9.99528 5.34837 10.0148 5.36621 10.0352H5.36719L5.37695 10.0449L7.07324 11.9561L8.7666 10.0449L8.77051 10.04C8.80915 9.99433 8.85684 9.95693 8.91016 9.92969L8.99512 9.89648C9.024 9.88849 9.05394 9.88396 9.08398 9.88184ZM3.22461 16.6006C3.4333 16.6427 3.59375 16.8243 3.59375 17.0479V20.2109L3.58496 20.3008C3.57299 20.3601 3.54928 20.4165 3.51562 20.4668L3.45801 20.5361C3.37169 20.6224 3.25487 20.6713 3.13281 20.6719H3.13184C2.88239 20.6718 2.676 20.4637 2.67578 20.2109V17.0479L2.68457 16.958C2.70229 16.8706 2.74558 16.7896 2.80957 16.7256C2.89504 16.6401 3.01097 16.5922 3.13184 16.5918L3.22461 16.6006ZM7.74609 12.5752L8.93066 13.4365L9.5918 11.3564L9.16113 10.9834L7.74609 12.5752ZM4.55078 11.3555L5.21191 13.4365L6.39551 12.5752L4.98145 10.9844L4.55078 11.3555Z" fill="#3E4A59" stroke="#3E4A59" stroke-width="0.2"/>
<path d="M14.9733 15.6445C15.0446 15.6445 15.1192 15.6495 15.1949 15.667L15.194 15.668C15.7644 15.7699 16.1529 16.2426 16.153 16.8135C16.153 16.8933 16.1412 16.9672 16.1315 17.0361V17.0391L15.1285 22.7744H15.1276C14.9968 23.5027 14.3107 24.0994 13.5631 24.0996H5.776C5.06951 24.0996 4.52502 23.5614 4.52502 22.8535C4.52504 22.7775 4.53001 22.7018 4.54065 22.6172L4.54163 22.6123L5.54944 16.8828L5.57874 16.7559C5.75103 16.1324 6.35512 15.6445 7.00842 15.6445H14.9733ZM7.00842 16.5625C6.88418 16.5625 6.75582 16.6166 6.65198 16.707C6.54825 16.7974 6.47566 16.9178 6.45471 17.0391V17.04L5.44592 22.7744C5.42464 22.896 5.45178 22.9974 5.50647 23.0664C5.56045 23.1344 5.65022 23.1816 5.776 23.1816H13.5631C13.7129 23.1815 13.8643 23.1165 13.9869 23.0098C14.1097 22.9029 14.1973 22.7598 14.2233 22.6123L15.2272 16.8828V16.8789L15.235 16.8135L15.2301 16.7559C15.22 16.7023 15.1957 16.6603 15.1637 16.6299C15.1204 16.5889 15.0555 16.5625 14.9733 16.5625H7.00842ZM10.7614 19.3926C11.0151 19.3926 11.2233 19.6005 11.2233 19.8545C11.223 20.1101 11.0133 20.3105 10.7614 20.3105C10.5077 20.3104 10.3055 20.1079 10.3053 19.8545C10.3053 19.6028 10.5057 19.3928 10.7614 19.3926Z" fill="#3E4A59" stroke="#3E4A59" stroke-width="0.2"/>
<path d="M2.13428 23.0586L2.13525 23.0635L2.14795 23.0889L2.18506 23.1191L2.18994 23.1221H2.18896C2.24596 23.16 2.32283 23.1816 2.40869 23.1816H4.56592C4.53839 23.0744 4.52392 22.9637 4.5249 22.8525C4.52496 22.7769 4.52993 22.7014 4.54053 22.6172L4.5415 22.6123L4.59619 22.3066H1.94678L2.13428 23.0586ZM7.07373 0.900391C8.089 0.900391 8.95108 1.23312 9.55811 1.82422L9.66943 1.93945C10.2116 2.52625 10.515 3.31964 10.5151 4.25391V6.42871C10.5151 6.89889 10.4321 7.36681 10.2427 7.80371C10.0626 8.2273 9.78808 8.60387 9.44189 8.90723L9.44287 8.9082L9.39014 8.9541L9.57178 10.2754V10.2764L9.57471 10.3662C9.56891 10.4558 9.53752 10.5424 9.48291 10.6152C9.41022 10.7121 9.30276 10.7771 9.18311 10.7959H9.18115C9.15107 10.8 9.12048 10.8008 9.09033 10.7988L9.00146 10.7842C8.94308 10.7685 8.88819 10.742 8.84033 10.7051C8.81639 10.6866 8.79464 10.6653 8.7749 10.6426L8.72217 10.5693C8.69225 10.5167 8.67284 10.4585 8.66553 10.3984V10.3975L8.56006 9.62793C8.43732 9.70194 8.30825 9.7648 8.17432 9.81641L8.17529 9.81738C7.86248 9.94041 7.46479 10 7.07178 10C6.67872 10 6.28101 9.94045 5.96826 9.81738V9.81641C5.83474 9.76501 5.70585 9.70268 5.5835 9.62891L5.48291 10.3994L5.48193 10.4014C5.44353 10.651 5.21825 10.8286 4.96826 10.7959H4.96533C4.71484 10.7572 4.5382 10.5303 4.5708 10.2764V10.2754L4.75146 8.95312L4.70068 8.9082V8.90723C4.35476 8.60392 4.08095 8.22706 3.90088 7.80371L3.83643 7.64355C3.69593 7.26606 3.62842 6.8583 3.62842 6.42871V4.25391C3.62852 3.25734 3.97344 2.42039 4.58545 1.82422L4.70166 1.7168C5.30023 1.19295 6.11738 0.900465 7.07373 0.900391ZM6.36182 4.28027C5.79621 4.95326 5.06412 4.97902 4.54639 4.87988V6.42871C4.54639 6.79834 4.61498 7.14202 4.7417 7.43945L4.8501 7.65918C4.93007 7.80061 5.02637 7.93205 5.13623 8.05176L5.31104 8.22266L5.31201 8.22363L5.74561 8.61035L5.88135 8.72266C6.01849 8.82678 6.15885 8.90632 6.30615 8.96387H6.30713L6.46631 9.01562C6.64059 9.06 6.85432 9.08301 7.07178 9.08301C7.36148 9.08298 7.64406 9.04134 7.83643 8.96387H7.8374L7.98193 8.89844C8.12524 8.826 8.26387 8.73086 8.40381 8.60938L8.83545 8.22363H8.83643L9.00928 8.05469C9.16938 7.88121 9.29147 7.692 9.38623 7.46973L9.38721 7.4668L9.43799 7.3457C9.54761 7.05863 9.59717 6.7354 9.59717 6.42871V5.40234C8.70052 5.57461 8.00007 5.44991 7.46143 5.19141C6.95769 4.94961 6.60182 4.59628 6.36182 4.28027ZM7.07471 1.81836C6.38843 1.81836 5.81605 2.00429 5.39502 2.33301L5.22412 2.48242C4.85771 2.83967 4.62231 3.33705 4.56396 3.94531C4.73741 3.99256 4.97175 4.02567 5.20654 3.95996C5.47119 3.88578 5.75182 3.68457 5.94775 3.20312L5.99072 3.12305C6.00731 3.09823 6.02616 3.07493 6.04736 3.05371L6.1167 2.99707C6.14176 2.9803 6.16877 2.96567 6.19678 2.9541L6.28271 2.92871C6.31211 2.92293 6.34246 2.91985 6.37256 2.91992L6.46143 2.92871C6.4901 2.93449 6.51825 2.9429 6.54541 2.9541H6.54639C6.67475 3.0055 6.74474 3.09695 6.79248 3.2041L6.79639 3.20996L6.80127 3.21973C6.80189 3.22124 6.80261 3.22306 6.80322 3.22461C6.80469 3.2283 6.80646 3.2338 6.80908 3.24023C6.8143 3.25306 6.82174 3.27212 6.83252 3.2959C6.85415 3.34361 6.88801 3.41137 6.93506 3.49121C7.0293 3.65115 7.17773 3.85741 7.39502 4.0459C7.816 4.41096 8.50617 4.71666 9.59717 4.46387V4.25488C9.59717 3.60166 9.4085 3.05306 9.07275 2.64746L8.91943 2.48242C8.48846 2.06119 7.85339 1.81845 7.07471 1.81836ZM5.87549 23.999L5.87646 24.0996H2.40869C2.21962 24.0996 2.0267 24.0601 1.85303 23.9814L1.68701 23.8896C1.50183 23.7677 1.35191 23.5972 1.27197 23.374L1.24268 23.2754L0.916504 21.9561C0.902234 21.8974 0.899369 21.836 0.908691 21.7764L0.931152 21.6895C0.941516 21.6612 0.955414 21.6342 0.971191 21.6084L1.0249 21.5361C1.04525 21.5141 1.06792 21.4942 1.09229 21.4766L1.17041 21.4316C1.19301 21.4213 1.21666 21.4138 1.24072 21.4072V21.4062C1.28756 21.3874 1.33938 21.3887 1.36475 21.3887H5.14404C5.39591 21.3887 5.60596 21.5901 5.60596 21.8457C5.60591 21.8812 5.59816 21.9145 5.59326 21.9385L5.59424 21.9395L5.4458 22.7725L5.44678 22.7734C5.44335 22.7943 5.44287 22.8212 5.44287 22.8535C5.44287 22.924 5.45712 22.982 5.48193 23.0273L5.51025 23.0693L5.51318 23.0723L5.54541 23.1055C5.58285 23.1365 5.63496 23.1599 5.70264 23.1729H5.70361L5.73389 23.1768C5.74771 23.178 5.76758 23.1792 5.7876 23.1826L5.86963 23.1973L5.87061 23.2812L5.87549 23.999Z" fill="#3E4A59" stroke="#3E4A59" stroke-width="0.2"/>
<path d="M14.5244 3.27051C16.5088 1.42114 19.6272 1.48264 21.5723 3.42773L21.7529 3.61816C23.501 5.55132 23.5195 8.49347 21.7842 10.416L21.6045 10.6045C19.6904 12.5185 16.6158 12.5592 14.6182 10.7529L14.4277 10.5723C13.2497 9.39431 12.7629 7.78685 12.9717 6.2627L12.9941 6.17188C13.065 5.97015 13.2702 5.83898 13.4902 5.86914L13.5801 5.8916C13.753 5.95233 13.8737 6.1111 13.8857 6.29395L13.8828 6.38672C13.7115 7.63624 14.1104 8.95411 15.0781 9.92188L15.2344 10.0703C16.8767 11.5558 19.3946 11.5155 20.9551 9.95508L21.1016 9.80078C22.5165 8.23273 22.5077 5.82365 21.0703 4.23438L20.9219 4.07812C19.3324 2.48859 16.8013 2.43575 15.1816 3.91406L15.3779 3.91602L15.4707 3.92578C15.6799 3.96954 15.8368 4.15591 15.8359 4.37793C15.8348 4.59993 15.6763 4.78522 15.4668 4.82715L15.374 4.83594L14.0684 4.8291C13.8479 4.82799 13.6645 4.67169 13.6211 4.46387L13.6113 4.37207L13.6045 3.06641L13.6133 2.97363C13.6551 2.7641 13.8396 2.60572 14.0615 2.60449L14.1543 2.61328C14.3639 2.65501 14.5222 2.83948 14.5234 3.06152L14.5244 3.27051ZM18 4.48926C18.2537 4.48928 18.4597 4.69462 18.46 4.94824V6.80957L19.6074 7.95703L19.666 8.0293C19.7669 8.18223 19.767 8.38231 19.666 8.53516L19.6074 8.60742C19.4504 8.76442 19.2077 8.78367 19.0293 8.66602L18.957 8.60742L17.5625 7.21191L17.54 7.19043V4.94824C17.5403 4.6946 17.7463 4.48926 18 4.48926Z" fill="#3E4A59" stroke="#3E4A59" stroke-width="0.15"/>
</g>
<defs>
<clipPath id="clip0_3371_10">
<rect width="24" height="24" fill="white"/>
</clipPath>
</defs>
</svg>
