<svg width="52" height="54" viewBox="0 0 52 54" fill="none" xmlns="http://www.w3.org/2000/svg">
<path d="M49.9568 36.1952C48.7887 35.6296 47.5223 35.295 46.2272 35.2096C46.7921 33.8129 47.0994 32.3254 47.1344 30.8192C47.3976 22.8952 41.12 17.144 38.4488 14.68L38.1688 14.428C37.7824 14.0696 37.4296 13.7168 37.0992 13.364C37.4403 13.0769 37.7143 12.7185 37.902 12.3141C38.0897 11.9097 38.1865 11.469 38.1856 11.0232V10.9672C38.1835 10.3516 37.9966 9.75077 37.6492 9.24257C37.3017 8.73437 36.8097 8.34218 36.2368 8.11679C36.8784 6.32728 37.3271 4.47438 37.5752 2.58959C37.6141 2.26812 37.5616 1.9422 37.4239 1.64912C37.2862 1.35605 37.0688 1.10766 36.7965 0.932378C36.5242 0.757096 36.2081 0.661999 35.8843 0.657969C35.5605 0.65394 35.2422 0.74114 34.9656 0.909592C34.1077 1.38476 33.1906 1.7444 32.2384 1.97919C31.3204 2.21802 30.3565 2.21802 29.4384 1.97919C28.48 1.74436 27.5572 1.38277 26.6944 0.903992C26.4162 0.735955 26.0961 0.649953 25.7712 0.655898C25.4462 0.661842 25.1295 0.759492 24.8576 0.937592C24.5874 1.10994 24.3721 1.356 24.2371 1.64674C24.1022 1.93747 24.0532 2.26074 24.096 2.57839C24.3478 4.47033 24.7983 6.33046 25.44 8.12799C24.8656 8.35185 24.372 8.74349 24.0234 9.25191C23.6748 9.76033 23.4874 10.3619 23.4856 10.9784V11.0344C23.4855 11.532 23.6068 12.0222 23.839 12.4623C24.0713 12.9025 24.4075 13.2793 24.8184 13.56C24.5664 13.8288 24.2584 14.12 23.9336 14.428L23.6648 14.68C20.96 17.144 14.716 22.8896 14.9736 30.8136C14.9736 31.228 15.024 31.6256 15.0688 32.0232H10.7064V30.2256C10.7064 29.9285 10.5884 29.6437 10.3784 29.4336C10.1683 29.2236 9.88345 29.1056 9.5864 29.1056H1.6344C1.33736 29.1056 1.05249 29.2236 0.842445 29.4336C0.632404 29.6437 0.514404 29.9285 0.514404 30.2256V49.3216C0.514404 49.6186 0.632404 49.9035 0.842445 50.1136C1.05249 50.3236 1.33736 50.4416 1.6344 50.4416H9.5864C9.88345 50.4416 10.1683 50.3236 10.3784 50.1136C10.5884 49.9035 10.7064 49.6186 10.7064 49.3216V47.8656L22.9032 52.788C23.8456 53.1425 24.8421 53.3319 25.8488 53.348C28.0888 53.348 30.0488 52.3792 32.3392 51.2368L32.5968 51.108H32.6528L50.0128 41.1344C50.4649 40.8975 50.8421 40.5394 51.1022 40.1003C51.3623 39.6612 51.4951 39.1583 51.4856 38.648C51.4895 38.1363 51.3478 37.634 51.0772 37.1997C50.8065 36.7654 50.4179 36.4171 49.9568 36.1952ZM26.9072 11.88H26.56C26.3412 11.88 26.1312 11.7934 25.9759 11.6392C25.8207 11.485 25.7327 11.2756 25.7312 11.0568V11.0008C25.729 10.8905 25.7488 10.781 25.7894 10.6785C25.8301 10.576 25.8907 10.4826 25.9679 10.4039C26.0451 10.3251 26.1372 10.2625 26.2389 10.2198C26.3406 10.1772 26.4497 10.1552 26.56 10.1552H35.1224C35.3407 10.1552 35.5501 10.2419 35.7045 10.3963C35.8589 10.5507 35.9456 10.7601 35.9456 10.9784V11.0344C35.9486 11.1444 35.9295 11.2538 35.8895 11.3563C35.8495 11.4588 35.7893 11.5522 35.7126 11.631C35.6358 11.7098 35.5441 11.7725 35.4427 11.8153C35.3413 11.858 35.2324 11.88 35.1224 11.88H26.9072ZM28.8448 4.16319C30.1474 4.51049 31.5182 4.51049 32.8208 4.16319C33.6369 3.94894 34.4347 3.66992 35.2064 3.32879C34.9115 4.8904 34.4863 6.42457 33.9352 7.91519H27.7192C27.1721 6.42374 26.7488 4.88975 26.4536 3.32879C27.2276 3.669 28.0272 3.94799 28.8448 4.16319ZM25.1768 16.36L25.4512 16.108C26.1288 15.4914 26.7614 14.8271 27.344 14.12H34.764C35.3441 14.817 35.9708 15.4737 36.64 16.0856L36.9256 16.3432C39.3728 18.5832 45.1128 23.8472 44.8832 30.7408C44.8673 32.3624 44.4416 33.9536 43.6456 35.3664C42.7867 35.5467 41.9535 35.8326 41.1648 36.2176L35.128 39.124C34.9659 38.2436 34.5032 37.4469 33.8189 36.8698C33.1345 36.2927 32.2711 35.9711 31.376 35.96H24.88C22.8663 33.8865 20.217 32.546 17.3536 32.152C17.2776 31.685 17.2308 31.2136 17.2136 30.7408C16.9896 23.8472 22.724 18.6 25.1768 16.36ZM2.7768 48.224V31.3456H8.4888V48.2016L2.7768 48.224ZM48.96 39.1128L31.6 49.092L31.376 49.204C28.3128 50.7328 26.4592 51.6568 23.732 50.6936L10.7064 45.48V34.28H15.5448C17.0525 34.2806 18.543 34.6002 19.9184 35.2179C21.2938 35.8356 22.5228 36.7374 23.5248 37.864C23.6296 37.9817 23.7582 38.076 23.9019 38.1407C24.0457 38.2053 24.2016 38.2389 24.3592 38.2392H31.376C31.749 38.2448 32.1082 38.3813 32.3908 38.625C32.6733 38.8686 32.8612 39.2038 32.9216 39.572C32.9318 39.8816 32.8414 40.1861 32.664 40.44C32.664 40.44 32.664 40.44 32.6304 40.4848C32.4961 40.6544 32.3261 40.7925 32.1326 40.8892C31.9391 40.986 31.7267 41.0391 31.5104 41.0448H18.9832C18.6862 41.0448 18.4013 41.1628 18.1912 41.3728C17.9812 41.5829 17.8632 41.8678 17.8632 42.1648C17.8632 42.4618 17.9812 42.7467 18.1912 42.9568C18.4013 43.1668 18.6862 43.2848 18.9832 43.2848H31.4992C31.9797 43.2864 32.4558 43.1927 32.8999 43.0091C33.344 42.8255 33.7473 42.5557 34.0864 42.2152C34.1592 42.1424 34.232 42.064 34.2992 41.9856L42.1392 38.2112C42.8439 37.8534 43.5994 37.606 44.3792 37.4776C45.944 37.251 47.5409 37.5028 48.96 38.2C49.0394 38.236 49.1067 38.2943 49.1534 38.3679C49.2002 38.4415 49.2244 38.5272 49.2232 38.6144C49.2311 38.7139 49.2105 38.8135 49.1639 38.9018C49.1173 38.99 49.0466 39.0632 48.96 39.1128Z" fill="white"/>
<path d="M32.72 29.996H30.144C30.0605 29.9967 29.9776 29.9809 29.9001 29.9494C29.8227 29.918 29.7523 29.8715 29.6929 29.8126C29.6336 29.7538 29.5865 29.6838 29.5543 29.6067C29.5222 29.5295 29.5056 29.4468 29.5056 29.3632C29.5056 29.0662 29.3876 28.7813 29.1776 28.5712C28.9675 28.3612 28.6827 28.2432 28.3856 28.2432C28.0886 28.2432 27.8037 28.3612 27.5937 28.5712C27.3836 28.7813 27.2656 29.0662 27.2656 29.3632C27.2671 30.1256 27.571 30.8563 28.1107 31.3949C28.6503 31.9335 29.3816 32.236 30.144 32.236H30.312V33.076C30.312 33.373 30.43 33.6579 30.6401 33.868C30.8501 34.078 31.135 34.196 31.432 34.196C31.7291 34.196 32.0139 34.078 32.224 33.868C32.434 33.6579 32.552 33.373 32.552 33.076V32.236H32.72C33.0973 32.236 33.4709 32.1617 33.8194 32.0173C34.1679 31.8729 34.4846 31.6613 34.7514 31.3946C35.0182 31.1278 35.2298 30.8111 35.3741 30.4626C35.5185 30.114 35.5928 29.7405 35.5928 29.3632V27.504C35.5913 26.7425 35.2882 26.0127 34.7498 25.4743C34.2113 24.9358 33.4815 24.6327 32.72 24.6312H30.144C30.0605 24.6319 29.9776 24.6161 29.9001 24.5846C29.8227 24.5532 29.7523 24.5067 29.6929 24.4478C29.6336 24.389 29.5865 24.319 29.5543 24.2419C29.5222 24.1647 29.5056 24.082 29.5056 23.9984V22.1392C29.5071 21.9709 29.575 21.8099 29.6946 21.6914C29.8141 21.5729 29.9757 21.5064 30.144 21.5064H32.72C32.8874 21.5079 33.0475 21.575 33.1659 21.6934C33.2842 21.8117 33.3514 21.9718 33.3528 22.1392C33.3528 22.4362 33.4708 22.7211 33.6809 22.9312C33.8909 23.1412 34.1758 23.2592 34.4728 23.2592C34.7699 23.2592 35.0547 23.1412 35.2648 22.9312C35.4748 22.7211 35.5928 22.4362 35.5928 22.1392C35.5928 21.7619 35.5185 21.3884 35.3741 21.0398C35.2298 20.6913 35.0182 20.3746 34.7514 20.1078C34.4846 19.8411 34.1679 19.6294 33.8194 19.4851C33.4709 19.3407 33.0973 19.2664 32.72 19.2664H32.552V18.4264C32.552 18.1294 32.434 17.8445 32.224 17.6344C32.0139 17.4244 31.7291 17.3064 31.432 17.3064C31.135 17.3064 30.8501 17.4244 30.6401 17.6344C30.43 17.8445 30.312 18.1294 30.312 18.4264V19.2664H30.144C29.3816 19.2664 28.6503 19.5689 28.1107 20.1075C27.571 20.6461 27.2671 21.3768 27.2656 22.1392V23.9984C27.2671 24.7608 27.571 25.4915 28.1107 26.0301C28.6503 26.5687 29.3816 26.8712 30.144 26.8712H32.72C32.8874 26.8727 33.0475 26.9398 33.1659 27.0582C33.2842 27.1765 33.3514 27.3366 33.3528 27.504V29.3632C33.3528 29.531 33.2862 29.692 33.1675 29.8107C33.0488 29.9293 32.8879 29.996 32.72 29.996Z" fill="white"/>
</svg>
