 <svg width="24" height="24" viewBox="0 0 28 28" fill="none" xmlns="http://www.w3.org/2000/svg">
              <path d="M17.4679 27.125H10.2274C3.67468 27.125 0.875 24.3253 0.875 17.7726V10.5321C0.875 3.97937 3.67468 1.17969 10.2274 1.17969H12.6409C13.1357 1.17969 13.546 1.58999 13.546 2.08476C13.546 2.57953 13.1357 2.98982 12.6409 2.98982H10.2274C4.66422 2.98982 2.68514 4.96891 2.68514 10.5321V17.7726C2.68514 23.3358 4.66422 25.3148 10.2274 25.3148H17.4679C23.0311 25.3148 25.0102 23.3358 25.0102 17.7726V15.3591C25.0102 14.8643 25.4205 14.454 25.9152 14.454C26.41 14.454 26.8203 14.8643 26.8203 15.3591V17.7726C26.8203 24.3253 24.0206 27.125 17.4679 27.125Z" fill="#007BFF" />
              <path d="M9.62433 21.0188C8.88821 21.0188 8.21242 20.7533 7.71765 20.2706C7.12634 19.6793 6.87292 18.8225 7.00566 17.9174L7.52457 14.2851C7.62111 13.5852 8.07968 12.6801 8.57445 12.1853L18.0837 2.67609C20.4851 0.274638 22.9228 0.274638 25.3242 2.67609C26.6396 3.99145 27.2309 5.33095 27.1103 6.67045C27.0016 7.75654 26.4224 8.81848 25.3242 9.90456L15.815 19.4138C15.3202 19.9086 14.4152 20.3672 13.7152 20.4637L10.0829 20.9826C9.92602 21.0188 9.76914 21.0188 9.62433 21.0188ZM19.3629 3.95525L9.85361 13.4645C9.62433 13.6938 9.35884 14.2248 9.31057 14.5385L8.79167 18.1709C8.74339 18.5208 8.8158 18.8104 8.99681 18.9914C9.17783 19.1725 9.46745 19.2449 9.81741 19.1966L13.4498 18.6777C13.7635 18.6294 14.3065 18.3639 14.5238 18.1347L24.033 8.6254C24.8174 7.84101 25.2277 7.14109 25.288 6.48944C25.3605 5.70505 24.9502 4.87238 24.033 3.94318C22.1022 2.01237 20.7748 2.55541 19.3629 3.95525Z" fill="#007BFF" />
              <path d="M23.3207 11.5338C23.2363 11.5338 23.1518 11.5217 23.0794 11.4976C21.5111 11.051 20.0827 10.2114 18.9297 9.0584C17.7766 7.90535 16.9371 6.47701 16.4905 4.90869C16.4271 4.6767 16.4573 4.42908 16.5746 4.21916C16.692 4.00924 16.8872 3.85383 17.118 3.7864C17.6007 3.65366 18.0955 3.93121 18.2282 4.41391C18.9523 6.98431 20.9917 9.02373 23.5621 9.74779C24.0448 9.88053 24.3224 10.3874 24.1896 10.8701C24.081 11.2804 23.719 11.5338 23.3207 11.5338Z" fill="#007BFF" />
            </svg>