<svg width="48" height="44" viewBox="0 0 48 44" fill="none" xmlns="http://www.w3.org/2000/svg">
<path d="M41.8605 25.6744H38.5116C38.0675 25.6744 37.6417 25.498 37.3276 25.184C37.0136 24.87 36.8372 24.4441 36.8372 24C36.8372 23.5559 37.0136 23.13 37.3276 22.816C37.6417 22.502 38.0675 22.3256 38.5116 22.3256H41.8605C42.6002 22.3244 43.3094 22.03 43.8325 21.5069C44.3556 20.9838 44.65 20.2747 44.6512 19.5349V6.13953C44.65 5.39976 44.3556 4.69062 43.8325 4.16752C43.3094 3.64442 42.6002 3.35002 41.8605 3.34884H6.13953C5.39976 3.35002 4.69062 3.64442 4.16752 4.16752C3.64442 4.69062 3.35002 5.39976 3.34884 6.13953V19.5349C3.35002 20.2747 3.64442 20.9838 4.16752 21.5069C4.69062 22.03 5.39976 22.3244 6.13953 22.3256H9.48837C9.93246 22.3256 10.3584 22.502 10.6724 22.816C10.9864 23.13 11.1628 23.5559 11.1628 24C11.1628 24.4441 10.9864 24.87 10.6724 25.184C10.3584 25.498 9.93246 25.6744 9.48837 25.6744H6.13953C4.51159 25.6732 2.95066 25.026 1.79953 23.8749C0.648405 22.7238 0.00118267 21.1628 0 19.5349V6.13953C0.00118267 4.51159 0.648405 2.95066 1.79953 1.79953C2.95066 0.648405 4.51159 0.00118267 6.13953 0H41.8605C43.4884 0.00118267 45.0493 0.648405 46.2005 1.79953C47.3516 2.95066 47.9988 4.51159 48 6.13953V19.5349C47.9988 21.1628 47.3516 22.7238 46.2005 23.8749C45.0493 25.026 43.4884 25.6732 41.8605 25.6744Z" fill="white"/>
<path d="M34.0465 43.5349H13.9535C12.3256 43.5337 10.7646 42.8865 9.6135 41.7354C8.46237 40.5842 7.81515 39.0233 7.81396 37.3954V10.6047C7.81396 10.1606 7.99038 9.73468 8.30439 9.42066C8.6184 9.10665 9.0443 8.93024 9.48838 8.93024H38.5116C38.9557 8.93024 39.3816 9.10665 39.6956 9.42066C40.0097 9.73468 40.1861 10.1606 40.1861 10.6047V37.3954C40.1849 39.0233 39.5377 40.5842 38.3865 41.7354C37.2354 42.8865 35.6745 43.5337 34.0465 43.5349ZM11.1628 12.2791V37.3954C11.164 38.1351 11.4584 38.8443 11.9815 39.3674C12.5046 39.8905 13.2137 40.1849 13.9535 40.1861H34.0465C34.7863 40.1849 35.4954 39.8905 36.0185 39.3674C36.5416 38.8443 36.836 38.1351 36.8372 37.3954V12.2791H11.1628Z" fill="white"/>
<path d="M24 36.8372C23.7801 36.8377 23.5622 36.7946 23.3591 36.7103C23.156 36.626 22.9716 36.5022 22.8167 36.346L16.1191 29.6484C15.8233 29.331 15.6623 28.9111 15.6699 28.4773C15.6776 28.0436 15.8533 27.6297 16.1601 27.3229C16.4669 27.0161 16.8808 26.8404 17.3146 26.8327C17.7483 26.8251 18.1682 26.9861 18.4856 27.2819L24 32.794L29.5144 27.2819C29.8318 26.9861 30.2517 26.8251 30.6854 26.8327C31.1192 26.8404 31.5331 27.0161 31.8399 27.3229C32.1467 27.6297 32.3224 28.0436 32.3301 28.4773C32.3377 28.9111 32.1767 29.331 31.8809 29.6484L25.1833 36.346C25.0284 36.5022 24.844 36.626 24.6409 36.7103C24.4378 36.7946 24.2199 36.8377 24 36.8372Z" fill="white"/>
<path d="M24 36.8372C23.5559 36.8372 23.13 36.6608 22.816 36.3468C22.502 36.0328 22.3255 35.6069 22.3255 35.1628V19.5349C22.3255 19.0908 22.502 18.6649 22.816 18.3509C23.13 18.0369 23.5559 17.8605 24 17.8605C24.444 17.8605 24.8699 18.0369 25.184 18.3509C25.498 18.6649 25.6744 19.0908 25.6744 19.5349V35.1628C25.6744 35.6069 25.498 36.0328 25.184 36.3468C24.8699 36.6608 24.444 36.8372 24 36.8372ZM40.7441 12.2791H7.25578C6.81169 12.2791 6.3858 12.1027 6.07179 11.7886C5.75777 11.4746 5.58136 11.0487 5.58136 10.6047C5.58136 10.1606 5.75777 9.73468 6.07179 9.42066C6.3858 9.10665 6.81169 8.93024 7.25578 8.93024H40.7441C41.1882 8.93024 41.6141 9.10665 41.9281 9.42066C42.2422 9.73468 42.4186 10.1606 42.4186 10.6047C42.4186 11.0487 42.2422 11.4746 41.9281 11.7886C41.6141 12.1027 41.1882 12.2791 40.7441 12.2791Z" fill="white"/>
</svg>
