<svg width="24" height="24" viewBox="0 0 24 24" fill="none" xmlns="http://www.w3.org/2000/svg">
<g clip-path="url(#clip0_3154_13)">
<path d="M20.9193 19.7138H16.8886C16.6968 19.7138 16.5128 19.6376 16.3772 19.502C16.2415 19.3663 16.1653 19.1824 16.1653 18.9906C16.1653 18.7988 16.2415 18.6148 16.3772 18.4792C16.5128 18.3436 16.6968 18.2674 16.8886 18.2674H20.4121L21.8151 14.4103H2.18322L3.58625 18.2674H7.11071C7.30252 18.2674 7.48647 18.3436 7.6221 18.4792C7.75773 18.6148 7.83393 18.7988 7.83393 18.9906C7.83393 19.1824 7.75773 19.3663 7.6221 19.502C7.48647 19.6376 7.30252 19.7138 7.11071 19.7138H3.08C2.93149 19.7138 2.78657 19.6681 2.66494 19.5829C2.54332 19.4976 2.45088 19.377 2.40018 19.2374L0.471614 13.9339C0.432176 13.8247 0.419594 13.7076 0.434928 13.5924C0.450262 13.4773 0.493063 13.3676 0.559719 13.2724C0.626375 13.1773 0.714931 13.0996 0.817914 13.0459C0.920898 12.9922 1.03529 12.9641 1.15143 12.9639H22.8478C22.9642 12.9638 23.0788 12.9918 23.182 13.0455C23.2852 13.0992 23.374 13.177 23.4407 13.2723C23.5074 13.3676 23.5502 13.4776 23.5653 13.5929C23.5804 13.7083 23.5675 13.8256 23.5277 13.9349L21.5991 19.2384C21.5482 19.3778 21.4557 19.4982 21.3341 19.5833C21.2125 19.6683 21.0677 19.7139 20.9193 19.7138Z" fill="#3E4A59"/>
<path d="M16.0988 23.5718C15.9946 23.5716 15.8917 23.5489 15.797 23.5053C15.7023 23.4617 15.6182 23.3982 15.5503 23.3191C15.4824 23.24 15.4323 23.1473 15.4035 23.0471C15.3747 22.9469 15.3678 22.8417 15.3833 22.7387L16.2194 17.304H7.77996L8.61599 22.7387C8.6333 22.8338 8.63138 22.9313 8.61034 23.0257C8.58929 23.12 8.54956 23.2091 8.49349 23.2879C8.43741 23.3666 8.36612 23.4332 8.28385 23.4839C8.20157 23.5346 8.10996 23.5683 8.01444 23.583C7.91892 23.5977 7.82143 23.5931 7.72771 23.5695C7.634 23.5459 7.54598 23.5037 7.46883 23.4455C7.39169 23.3873 7.327 23.3142 7.27858 23.2306C7.23016 23.1469 7.19899 23.0544 7.18692 22.9585L6.22264 16.6907C6.20679 16.5877 6.21341 16.4825 6.24203 16.3822C6.27066 16.282 6.32061 16.1891 6.38848 16.11C6.45634 16.0309 6.54051 15.9674 6.63522 15.9238C6.72992 15.8802 6.83293 15.8577 6.93717 15.8576H17.0622C17.1665 15.8576 17.2696 15.8802 17.3644 15.9238C17.4592 15.9675 17.5434 16.0311 17.6113 16.1103C17.6792 16.1896 17.7291 16.2825 17.7576 16.3829C17.7862 16.4833 17.7927 16.5886 17.7767 16.6917L16.8124 22.9595C16.7862 23.1299 16.6998 23.2854 16.5689 23.3977C16.438 23.51 16.2713 23.5718 16.0988 23.5718ZM22.1247 14.1701C21.9328 14.1701 21.7489 14.0939 21.6133 13.9583C21.4776 13.8227 21.4014 13.6387 21.4014 13.4469C21.3963 12.4993 21.1489 11.5688 20.683 10.7437C20.217 9.91862 19.5478 9.22633 18.7391 8.73258C18.5752 8.63271 18.4578 8.47186 18.4126 8.28542C18.3674 8.09898 18.3981 7.90221 18.498 7.73841C18.5978 7.57461 18.7587 7.45718 18.9451 7.41198C19.1316 7.36677 19.3284 7.39747 19.4922 7.49734C21.5615 8.75861 22.8469 11.0382 22.8469 13.4469C22.847 13.5418 22.8284 13.6359 22.7922 13.7236C22.756 13.8113 22.7028 13.8911 22.6357 13.9582C22.5686 14.0254 22.489 14.0787 22.4013 14.1151C22.3136 14.1514 22.2196 14.1701 22.1247 14.1701Z" fill="#3E4A59"/>
<path d="M18.2675 9.10767C19.0663 9.10767 19.7139 8.46009 19.7139 7.66126C19.7139 6.86243 19.0663 6.21484 18.2675 6.21484C17.4686 6.21484 16.821 6.86243 16.821 7.66126C16.821 8.46009 17.4686 9.10767 18.2675 9.10767Z" fill="#3E4A59"/>
<path d="M11.9997 8.14292C9.87245 8.14292 8.14252 6.41301 8.14252 4.28581C8.14252 2.15862 9.87245 0.428711 11.9997 0.428711C14.1269 0.428711 15.8568 2.15862 15.8568 4.28581C15.8568 6.41301 14.1269 8.14292 11.9997 8.14292ZM11.9997 1.87512C10.6699 1.87512 9.58895 2.95704 9.58895 4.28581C9.58895 5.61459 10.6699 6.6965 11.9997 6.6965C13.3294 6.6965 14.4104 5.61459 14.4104 4.28581C14.4104 2.95704 13.3294 1.87512 11.9997 1.87512ZM19.2318 14.4107C19.04 14.4107 18.856 14.3345 18.7204 14.1989C18.5848 14.0633 18.5086 13.8793 18.5086 13.6875C18.5076 12.8567 18.1771 12.0601 17.5895 11.4726C17.002 10.8851 16.2055 10.5546 15.3747 10.5536H8.62466C7.79381 10.5546 6.99727 10.8851 6.40977 11.4726C5.82227 12.0601 5.49176 12.8567 5.49074 13.6875C5.49074 13.8793 5.41454 14.0633 5.27891 14.1989C5.14329 14.3345 4.95933 14.4107 4.76752 14.4107C4.57572 14.4107 4.39176 14.3345 4.25614 14.1989C4.12051 14.0633 4.04431 13.8793 4.04431 13.6875C4.04584 12.4732 4.52891 11.3091 5.38756 10.4504C6.24621 9.59178 7.41035 9.10872 8.62466 9.10719H15.3747C16.589 9.10872 17.7531 9.59178 18.6118 10.4504C19.4704 11.3091 19.9535 12.4732 19.955 13.6875C19.955 13.8793 19.8788 14.0633 19.7432 14.1989C19.6076 14.3345 19.4236 14.4107 19.2318 14.4107Z" fill="#3E4A59"/>
<path d="M13.6744 19.3256H13.8837C13.8837 19.2701 13.8617 19.2168 13.8224 19.1776C13.7832 19.1383 13.7299 19.1163 13.6744 19.1163V19.3256ZM10.3256 19.3256V19.1163C10.2701 19.1163 10.2168 19.1383 10.1776 19.1776C10.1383 19.2168 10.1163 19.2701 10.1163 19.3256H10.3256ZM13.4651 19.3256V20.4419H13.8837V19.3256H13.4651ZM13.4651 20.4419V22.6744H13.8837V20.4419H13.4651ZM13.1163 23.0233H10.8837V23.4419H13.1163V23.0233ZM10.5349 22.6744V19.3256H10.1163V22.6744H10.5349ZM10.3256 19.5349H13.6744V19.1163H10.3256V19.5349ZM10.3256 18.4186H13.6744V18H10.3256V18.4186ZM9.4186 19.3256C9.4186 19.085 9.51416 18.8543 9.68425 18.6843C9.85434 18.5142 10.085 18.4186 10.3256 18.4186V18C9.97402 18 9.63685 18.1397 9.38825 18.3883C9.13966 18.6368 9 18.974 9 19.3256H9.4186ZM10.3256 20.2326C10.085 20.2326 9.85434 20.137 9.68425 19.9669C9.51416 19.7968 9.4186 19.5661 9.4186 19.3256H9C9 19.6771 9.13966 20.0143 9.38825 20.2629C9.63685 20.5115 9.97402 20.6512 10.3256 20.6512V20.2326ZM14.5814 19.3256C14.5814 19.5661 14.4858 19.7968 14.3157 19.9669C14.1457 20.137 13.915 20.2326 13.6744 20.2326V20.6512C14.026 20.6512 14.3632 20.5115 14.6117 20.2629C14.8603 20.0143 15 19.6771 15 19.3256H14.5814ZM15 19.3256C15 18.974 14.8603 18.6368 14.6117 18.3883C14.3632 18.1397 14.026 18 13.6744 18V18.4186C13.915 18.4186 14.1457 18.5142 14.3157 18.6843C14.4858 18.8543 14.5814 19.085 14.5814 19.3256H15ZM13.4651 22.6744C13.4651 22.867 13.3088 23.0233 13.1163 23.0233V23.4419C13.3198 23.4419 13.515 23.361 13.6589 23.2171C13.8029 23.0732 13.8837 22.878 13.8837 22.6744H13.4651ZM10.8837 23.0233C10.6912 23.0233 10.5349 22.867 10.5349 22.6744H10.1163C10.1163 22.878 10.1971 23.0732 10.3411 23.2171C10.485 23.361 10.6802 23.4419 10.8837 23.4419V23.0233ZM12.706 21.706C12.7266 21.6869 12.7431 21.6638 12.7545 21.6381C12.766 21.6124 12.7721 21.5847 12.7726 21.5566C12.7731 21.5285 12.768 21.5006 12.7574 21.4745C12.7469 21.4485 12.7312 21.4248 12.7114 21.4049C12.6915 21.385 12.6678 21.3694 12.6417 21.3588C12.6157 21.3483 12.5878 21.3432 12.5597 21.3436C12.5316 21.3441 12.5038 21.3503 12.4782 21.3617C12.4525 21.3732 12.4294 21.3897 12.4102 21.4102L12.706 21.706ZM11.5898 21.4102C11.5706 21.3897 11.5475 21.3732 11.5218 21.3617C11.4962 21.3503 11.4684 21.3441 11.4403 21.3436C11.4122 21.3432 11.3843 21.3483 11.3583 21.3588C11.3322 21.3694 11.3085 21.385 11.2886 21.4049C11.2688 21.4248 11.2531 21.4485 11.2426 21.4745C11.232 21.5006 11.2269 21.5285 11.2274 21.5566C11.2279 21.5847 11.234 21.6124 11.2455 21.6381C11.2569 21.6638 11.2734 21.6869 11.294 21.706L11.5898 21.4102ZM12.2093 20.4419C12.2093 20.3863 12.1873 20.3331 12.148 20.2939C12.1087 20.2546 12.0555 20.2326 12 20.2326C11.9445 20.2326 11.8913 20.2546 11.852 20.2939C11.8127 20.3331 11.7907 20.3863 11.7907 20.4419H12.2093ZM11.7907 21.8372C11.7907 21.8927 11.8127 21.946 11.852 21.9852C11.8913 22.0245 11.9445 22.0465 12 22.0465C12.0555 22.0465 12.1087 22.0245 12.148 21.9852C12.1873 21.946 12.2093 21.8927 12.2093 21.8372H11.7907ZM12.4102 21.4102L12.0494 21.7711L12.3452 22.0669L12.706 21.706L12.4102 21.4102ZM11.9506 21.7711L11.5898 21.4102L11.294 21.706L11.6548 22.0669L11.9506 21.7711ZM12.0494 21.7711C12.0429 21.7776 12.0352 21.7827 12.0267 21.7862C12.0183 21.7898 12.0092 21.7916 12 21.7916C11.9908 21.7916 11.9817 21.7898 11.9733 21.7862C11.9648 21.7827 11.9571 21.7776 11.9506 21.7711L11.6548 22.0669C11.7464 22.1584 11.8705 22.2098 12 22.2098C12.1295 22.2098 12.2536 22.1584 12.3452 22.0669L12.0494 21.7711ZM11.7907 20.4419V21.8372H12.2093V20.4419H11.7907Z" fill="#3E4A59"/>
<path d="M13.8837 19.3256H13.6744V19.1163M13.8837 19.3256C13.8837 19.2701 13.8617 19.2168 13.8224 19.1776C13.7832 19.1383 13.7299 19.1163 13.6744 19.1163M13.8837 19.3256V20.4419M13.8837 19.3256H13.4651V20.4419M13.6744 19.1163V19.5349H10.3256V19.1163M13.6744 19.1163H10.3256M13.6744 20.4419H13.4651M13.4651 20.4419H13.8837M13.4651 20.4419V22.6744M10.3256 19.1163V19.3256H10.1163M10.3256 19.1163C10.2701 19.1163 10.2168 19.1383 10.1776 19.1776C10.1383 19.2168 10.1163 19.2701 10.1163 19.3256M10.1163 19.3256H10.5349V22.6744M10.1163 19.3256V22.6744M13.8837 20.4419V22.6744M13.4651 22.6744H13.8837M13.4651 22.6744C13.4651 22.867 13.3088 23.0233 13.1163 23.0233M13.8837 22.6744C13.8837 22.878 13.8029 23.0732 13.6589 23.2171C13.515 23.361 13.3198 23.4419 13.1163 23.4419M13.1163 23.0233H10.8837M13.1163 23.0233V23.4419M10.8837 23.0233V23.4419M10.8837 23.0233C10.6912 23.0233 10.5349 22.867 10.5349 22.6744M10.8837 23.4419H13.1163M10.8837 23.4419C10.6802 23.4419 10.485 23.361 10.3411 23.2171C10.1971 23.0732 10.1163 22.878 10.1163 22.6744M10.5349 22.6744H10.1163M10.3256 18.4186H13.6744M10.3256 18.4186V18M10.3256 18.4186C10.085 18.4186 9.85434 18.5142 9.68425 18.6843C9.51416 18.8543 9.4186 19.085 9.4186 19.3256M13.6744 18.4186V18M13.6744 18.4186C13.915 18.4186 14.1457 18.5142 14.3157 18.6843C14.4858 18.8543 14.5814 19.085 14.5814 19.3256M13.6744 18H10.3256M13.6744 18C14.026 18 14.3632 18.1397 14.6117 18.3883C14.8603 18.6368 15 18.974 15 19.3256M10.3256 18C9.97402 18 9.63685 18.1397 9.38825 18.3883C9.13966 18.6368 9 18.974 9 19.3256M9.4186 19.3256H9M9.4186 19.3256C9.4186 19.5661 9.51416 19.7968 9.68425 19.9669C9.85434 20.137 10.085 20.2326 10.3256 20.2326V20.6512C9.97402 20.6512 9.63685 20.5115 9.38825 20.2629C9.13966 20.0143 9 19.6771 9 19.3256M14.5814 19.3256C14.5814 19.5661 14.4858 19.7968 14.3157 19.9669C14.1457 20.137 13.915 20.2326 13.6744 20.2326V20.6512C14.026 20.6512 14.3632 20.5115 14.6117 20.2629C14.8603 20.0143 15 19.6771 15 19.3256M14.5814 19.3256H15M12.706 21.706C12.7266 21.6869 12.7431 21.6638 12.7545 21.6381C12.766 21.6124 12.7721 21.5847 12.7726 21.5566C12.7731 21.5285 12.768 21.5006 12.7574 21.4745C12.7469 21.4485 12.7312 21.4248 12.7114 21.4049C12.6915 21.385 12.6678 21.3694 12.6417 21.3588C12.6157 21.3483 12.5878 21.3432 12.5597 21.3436C12.5316 21.3441 12.5038 21.3503 12.4782 21.3617C12.4525 21.3732 12.4294 21.3897 12.4102 21.4102M12.706 21.706L12.4102 21.4102M12.706 21.706L12.3452 22.0669M12.4102 21.4102L12.0494 21.7711M11.8027 21.919L11.9506 21.7711M11.9506 21.7711L11.5898 21.4102M11.9506 21.7711L11.6548 22.0669M11.9506 21.7711C11.9571 21.7776 11.9648 21.7827 11.9733 21.7862C11.9817 21.7898 11.9908 21.7916 12 21.7916C12.0092 21.7916 12.0183 21.7898 12.0267 21.7862C12.0352 21.7827 12.0429 21.7776 12.0494 21.7711M11.5898 21.4102C11.5706 21.3897 11.5475 21.3732 11.5218 21.3617C11.4962 21.3503 11.4684 21.3441 11.4403 21.3436C11.4122 21.3432 11.3843 21.3483 11.3583 21.3588C11.3322 21.3694 11.3085 21.385 11.2886 21.4049C11.2688 21.4248 11.2531 21.4485 11.2426 21.4745C11.232 21.5006 11.2269 21.5285 11.2274 21.5566C11.2279 21.5847 11.234 21.6124 11.2455 21.6381C11.2569 21.6638 11.2734 21.6869 11.294 21.706M11.5898 21.4102L11.294 21.706M11.294 21.706L11.6548 22.0669M12.2093 20.4419C12.2093 20.3863 12.1873 20.3331 12.148 20.2939C12.1087 20.2546 12.0555 20.2326 12 20.2326C11.9445 20.2326 11.8913 20.2546 11.852 20.2939C11.8127 20.3331 11.7907 20.3863 11.7907 20.4419M12.2093 20.4419H11.7907M12.2093 20.4419V21.8372M11.7907 20.4419V21.8372M11.7907 21.8372C11.7907 21.8927 11.8127 21.946 11.852 21.9852C11.8913 22.0245 11.9445 22.0465 12 22.0465C12.0555 22.0465 12.1087 22.0245 12.148 21.9852C12.1873 21.946 12.2093 21.8927 12.2093 21.8372M11.7907 21.8372H12.2093M12.0494 21.7711L12.3452 22.0669M12.3452 22.0669C12.2536 22.1584 12.1295 22.2098 12 22.2098C11.8705 22.2098 11.7464 22.1584 11.6548 22.0669" stroke="#3E4A59" stroke-width="0.2"/>
</g>
<defs>
<clipPath id="clip0_3154_13">
<rect width="24" height="24" fill="white"/>
</clipPath>
</defs>
</svg>
