<svg width="24" height="24" viewBox="0 0 24 24" fill="none" xmlns="http://www.w3.org/2000/svg">
<g clip-path="url(#clip0_2921_461)">
<path d="M21.25 20H17.07C16.8711 20 16.6803 19.921 16.5397 19.7803C16.399 19.6397 16.32 19.4489 16.32 19.25C16.32 19.0511 16.399 18.8603 16.5397 18.7197C16.6803 18.579 16.8711 18.5 17.07 18.5H20.724L22.179 14.5H1.81998L3.27499 18.5H6.92999C7.1289 18.5 7.31966 18.579 7.46032 18.7197C7.60097 18.8603 7.67999 19.0511 7.67999 19.25C7.67999 19.4489 7.60097 19.6397 7.46032 19.7803C7.31966 19.921 7.1289 20 6.92999 20H2.74998C2.59597 20 2.44568 19.9526 2.31955 19.8642C2.19342 19.7758 2.09756 19.6508 2.04498 19.506L0.0449845 14.006C0.00408661 13.8927 -0.00896178 13.7712 0.00694027 13.6518C0.0228423 13.5325 0.0672282 13.4186 0.136353 13.32C0.205478 13.2214 0.297314 13.1408 0.404112 13.0851C0.51091 13.0294 0.629537 13.0002 0.749985 13H23.25C23.3706 12.9999 23.4895 13.029 23.5965 13.0847C23.7036 13.1403 23.7956 13.221 23.8648 13.3199C23.934 13.4187 23.9783 13.5328 23.994 13.6524C24.0097 13.772 23.9963 13.8937 23.955 14.007L21.955 19.507C21.9023 19.6516 21.8063 19.7764 21.6802 19.8646C21.5541 19.9528 21.4039 20.0001 21.25 20Z" fill="#3E4A59"/>
<path d="M16.251 24.0004C16.1429 24.0001 16.0361 23.9766 15.9379 23.9314C15.8398 23.8862 15.7525 23.8203 15.6821 23.7383C15.6117 23.6563 15.5597 23.5601 15.5299 23.4562C15.5 23.3523 15.4929 23.2432 15.509 23.1364L16.376 17.5004H7.62396L8.49096 23.1364C8.50891 23.235 8.50691 23.3362 8.48509 23.434C8.46327 23.5318 8.42207 23.6242 8.36392 23.7059C8.30576 23.7875 8.23184 23.8566 8.14651 23.9092C8.06118 23.9618 7.96619 23.9967 7.86713 24.012C7.76807 24.0272 7.66697 24.0224 7.56978 23.9979C7.4726 23.9734 7.38131 23.9297 7.30131 23.8694C7.22131 23.809 7.15422 23.7332 7.10401 23.6465C7.0538 23.5597 7.02148 23.4638 7.00896 23.3644L6.00896 16.8644C5.99253 16.7575 5.99939 16.6484 6.02907 16.5444C6.05876 16.4405 6.11056 16.3442 6.18094 16.2621C6.25132 16.18 6.33861 16.1142 6.43682 16.069C6.53503 16.0238 6.64185 16.0004 6.74996 16.0004H17.25C17.3582 16.0004 17.4651 16.0238 17.5634 16.069C17.6617 16.1143 17.749 16.1803 17.8194 16.2624C17.8898 16.3446 17.9416 16.441 17.9712 16.5451C18.0008 16.6492 18.0075 16.7584 17.991 16.8654L16.991 23.3654C16.9637 23.5421 16.8742 23.7033 16.7384 23.8198C16.6027 23.9362 16.4298 24.0003 16.251 24.0004ZM22.5 14.2504C22.301 14.2504 22.1103 14.1713 21.9696 14.0307C21.829 13.89 21.75 13.6993 21.75 13.5004C21.7446 12.5177 21.4881 11.5527 21.0049 10.697C20.5216 9.84135 19.8277 9.1234 18.989 8.61136C18.8191 8.50779 18.6973 8.34099 18.6504 8.14764C18.6035 7.95429 18.6354 7.75023 18.739 7.58036C18.8425 7.41049 19.0093 7.28872 19.2027 7.24183C19.396 7.19495 19.6001 7.22679 19.77 7.33036C21.916 8.63836 23.249 11.0024 23.249 13.5004C23.2491 13.5988 23.2298 13.6963 23.1922 13.7873C23.1546 13.8783 23.0995 13.961 23.0299 14.0306C22.9604 14.1003 22.8778 14.1555 22.7868 14.1932C22.6959 14.231 22.5984 14.2504 22.5 14.2504Z" fill="#3E4A59"/>
<path d="M18.5 9C19.3284 9 20 8.32843 20 7.5C20 6.67157 19.3284 6 18.5 6C17.6716 6 17 6.67157 17 7.5C17 8.32843 17.6716 9 18.5 9Z" fill="#3E4A59"/>
<path d="M12 8C9.794 8 8 6.206 8 4C8 1.794 9.794 0 12 0C14.206 0 16 1.794 16 4C16 6.206 14.206 8 12 8ZM12 1.5C10.621 1.5 9.5 2.622 9.5 4C9.5 5.378 10.621 6.5 12 6.5C13.379 6.5 14.5 5.378 14.5 4C14.5 2.622 13.379 1.5 12 1.5ZM19.5 14.5C19.3011 14.5 19.1103 14.421 18.9697 14.2803C18.829 14.1397 18.75 13.9489 18.75 13.75C18.7489 12.8884 18.4062 12.0623 17.7969 11.4531C17.1877 10.8438 16.3616 10.5011 15.5 10.5H8.5C7.63837 10.5011 6.81234 10.8438 6.20307 11.4531C5.59381 12.0623 5.25106 12.8884 5.25 13.75C5.25 13.9489 5.17098 14.1397 5.03033 14.2803C4.88968 14.421 4.69891 14.5 4.5 14.5C4.30109 14.5 4.11032 14.421 3.96967 14.2803C3.82902 14.1397 3.75 13.9489 3.75 13.75C3.75159 12.4907 4.25254 11.2835 5.143 10.393C6.03345 9.50254 7.24071 9.00159 8.5 9H15.5C16.7593 9.00159 17.9665 9.50254 18.857 10.393C19.7475 11.2835 20.2484 12.4907 20.25 13.75C20.25 13.9489 20.171 14.1397 20.0303 14.2803C19.8897 14.421 19.6989 14.5 19.5 14.5Z" fill="#3E4A59"/>
</g>
<defs>
<clipPath id="clip0_2921_461">
<rect width="24" height="24" fill="white"/>
</clipPath>
</defs>
</svg>
