<svg width="26" height="26" viewBox="0 0 24 24" fill="none" xmlns="http://www.w3.org/2000/svg">
<path d="M13.9926 13.4154C13.9926 13.4154 14.2299 13.3684 10.2344 13.3684C6.23898 13.3684 3 16.6074 3 20.6029M10.2344 10.2679C7.95132 10.2679 6.10048 8.4171 6.10048 6.13397C6.10048 3.85084 7.95132 2 10.2344 2C12.5175 2 14.3684 3.85084 14.3684 6.13397C14.3684 8.4171 12.5175 10.2679 10.2344 10.2679Z" stroke="#3E4A59" stroke-width="2" stroke-linecap="round" stroke-linejoin="round"/>
<path d="M14.8921 19.6091H20.6752C20.9374 19.6091 21.15 19.3965 21.15 19.1342C21.15 18.872 20.9374 18.6594 20.6752 18.6594H14.8921L16.6801 16.8715L16.6801 16.8715L14.8921 19.6091Z" fill="#3E4A59" stroke="#3E4A59" stroke-width="0.3"/>
</svg>
