<svg width="30" height="30" viewBox="0 0 30 30" fill="none" xmlns="http://www.w3.org/2000/svg">
<path d="M16.8705 20.7269C16.5842 20.7536 16.2969 20.6889 16.0496 20.5423C15.9604 20.4507 15.8929 20.3403 15.8522 20.2191C15.8114 20.0979 15.7984 19.9692 15.8141 19.8423C15.8208 19.6283 15.8464 19.4154 15.8905 19.206C15.9332 18.9657 15.9884 18.7278 16.0559 18.4932L16.8068 15.9096C16.8843 15.6545 16.9355 15.3922 16.9596 15.1268C16.9596 14.8405 16.9977 14.6432 16.9977 14.5286C17.0056 14.2767 16.9565 14.0262 16.854 13.7959C16.7515 13.5656 16.5984 13.3614 16.4059 13.1986C15.9264 12.8305 15.3292 12.6495 14.7259 12.6896C14.2936 12.6961 13.8647 12.7668 13.4532 12.8996C13.0035 13.0396 12.5304 13.2071 12.0341 13.4023L11.8177 14.2423C11.9641 14.1914 12.1423 14.1341 12.3459 14.0705C12.5402 14.0129 12.7415 13.9829 12.9441 13.9814C13.2283 13.9506 13.5142 14.0204 13.7523 14.1786C13.8323 14.2741 13.8921 14.3848 13.9282 14.504C13.9643 14.6232 13.9759 14.7485 13.9623 14.8723C13.9616 15.0863 13.9381 15.2996 13.8923 15.5086C13.8477 15.7314 13.7904 15.9668 13.7204 16.215L12.9632 18.8113C12.9022 19.0527 12.8533 19.2969 12.8168 19.5432C12.7871 19.754 12.7722 19.9666 12.7723 20.1795C12.7707 20.4331 12.8273 20.6836 12.9376 20.912C13.0479 21.1403 13.209 21.3403 13.4086 21.4968C13.8956 21.8707 14.5012 22.056 15.114 22.0186C15.5455 22.0274 15.9756 21.9651 16.3868 21.834C16.7474 21.711 17.2289 21.5349 17.8314 21.3058L18.035 20.504C17.8718 20.5717 17.7038 20.627 17.5323 20.6694C17.3154 20.719 17.0927 20.7383 16.8705 20.7269ZM17.6659 8.47687C17.3196 8.1588 16.8633 7.98768 16.3932 7.99961C15.9233 7.98901 15.4675 8.15995 15.1204 8.47687C14.4843 9.02538 14.4133 9.98575 14.9618 10.6219C15.0107 10.6786 15.0637 10.7316 15.1204 10.7805C15.8452 11.4287 16.9412 11.4287 17.6659 10.7805C18.302 10.2266 18.3687 9.2619 17.8147 8.62578C17.7686 8.57276 17.7189 8.523 17.6659 8.47687Z" fill="#00BAF2"/>
<path d="M15 0.8C7.15755 0.8 0.8 7.15755 0.8 15C0.8 22.8424 7.15755 29.2 15 29.2C22.8424 29.2 29.2 22.8424 29.2 15C29.2 7.15755 22.8424 0.8 15 0.8ZM15 27.5273C8.08136 27.5273 2.47274 21.9186 2.47274 15C2.47274 8.08136 8.08136 2.47274 15 2.47274C21.9186 2.47274 27.5273 8.08136 27.5273 15C27.5273 21.9186 21.9186 27.5273 15 27.5273Z" fill="#00BAF2" stroke="#00BAF2" stroke-width="0.4"/>
</svg>
