<svg width="24" height="27" viewBox="0 0 24 27" fill="none" xmlns="http://www.w3.org/2000/svg">
<path d="M3 13.4049C3 15.629 3.0581 17.2047 3.24334 18.3728C3.42639 19.527 3.71952 20.1835 4.11837 20.6423C4.52605 21.1113 5.13898 21.4848 6.19208 21.8871C6.97593 22.1866 7.91698 22.4722 9.09746 22.8306C9.52478 22.9603 9.98347 23.0995 10.4774 23.2524C12.2289 23.7944 13.4656 23.9057 14.3403 23.7381C15.1556 23.5819 15.7159 23.1739 16.1454 22.467C16.6045 21.7115 16.923 20.5941 17.1155 19.0395C17.3065 17.4977 17.3636 15.6206 17.3636 13.4049C17.3636 11.1892 17.3065 9.31214 17.1155 7.77041C16.923 6.2158 16.6045 5.0984 16.1454 4.3429C15.7159 3.63605 15.1557 3.22801 14.3403 3.0718C13.4656 2.90424 12.2289 3.0155 10.4774 3.55749C9.98355 3.71032 9.52493 3.84953 9.09767 3.97923C7.91709 4.33758 6.97597 4.62325 6.19208 4.9227C5.13898 5.325 4.52605 5.69849 4.11838 6.16751C3.71952 6.62638 3.42639 7.28287 3.24334 8.43709C3.0581 9.60514 3 11.1809 3 13.4049Z" stroke="#3E4A59" stroke-width="2" stroke-linecap="round" stroke-linejoin="round"/>
<ellipse cx="0.909091" cy="0.912397" rx="0.909091" ry="0.912397" transform="matrix(-1 0 0 1 14.7273 12.6466)" fill="#3E4A59"/>
<path d="M17.4545 21.6165C22 21.6165 22 20.5072 22 13.5526C22 6.5981 22 5.19339 17.4545 5.19339" stroke="#3E4A59" stroke-width="2" stroke-linecap="round" stroke-linejoin="round"/>
</svg>
