<svg width="40" height="40" viewBox="0 0 40 40" fill="none" xmlns="http://www.w3.org/2000/svg">
<path d="M14.5591 20.403C16.2108 18.7466 17.7746 17.1982 19.3111 15.6214C19.6165 15.3089 19.759 15.3136 20.0668 15.6214C25.3059 20.8807 30.5546 26.1294 35.8151 31.3685C36.111 31.6632 36.1454 31.8402 35.8804 32.1706C34.9274 33.366 33.8734 34.458 32.7089 35.4479C32.4249 35.6891 32.2788 35.6843 31.99 35.4241C27.8405 31.6751 24.0571 27.5541 20.0609 23.6494C19.7329 23.3298 19.5903 23.3797 19.2992 23.672C15.5454 27.446 11.7786 31.2057 8.01409 34.969C7.41996 35.5631 7.42233 35.5572 6.80086 35.0129C5.67675 34.029 4.68929 32.9216 3.7957 31.725C3.59845 31.46 3.61152 31.315 3.85036 31.0821C5.06597 29.8962 6.25425 28.683 7.4663 27.4935C7.68375 27.2808 7.77406 27.0681 7.77169 26.7627C7.75743 25.0468 7.76099 23.331 7.76931 21.6151C7.7705 21.3109 7.74198 21.0186 7.59107 20.756C7.23458 20.1345 7.18467 19.4892 7.33321 18.7929C7.47461 18.1275 7.5578 17.4478 7.63741 16.7716C7.6695 16.5007 7.77525 16.433 8.0343 16.4259C9.03245 16.3973 9.03839 16.3866 9.17504 17.3468C9.26892 18.0051 9.32833 18.667 9.43171 19.3241C9.48994 19.6984 9.4638 20.0513 9.32001 20.3983C9.07998 20.9746 9.03245 21.5759 9.04315 22.195C9.06216 23.3821 9.04909 24.5703 9.04909 25.7539C9.23921 25.7907 9.29269 25.6552 9.37111 25.5768C10.3645 24.5893 11.3508 23.5948 12.3466 22.6109C12.5307 22.4291 12.6377 22.2508 12.6365 21.9763C12.6258 19.7352 12.6211 17.4941 12.6389 15.253C12.6413 14.8989 12.5082 14.8668 12.2159 14.868C10.2374 14.8787 8.25888 14.874 6.2804 14.8728C6.11047 14.8728 5.94174 14.8728 5.6613 14.8728C6.80443 13.3054 7.9428 11.8902 9.68244 11.1119C10.0496 10.9479 10.4477 10.8849 10.8576 10.8873C12.4155 10.8956 13.9745 10.8885 15.5323 10.8908C15.7831 10.8908 16.0599 10.8053 16.0421 11.2557C16.0302 11.561 16.3356 11.3828 16.496 11.4113C16.6351 11.4351 16.8466 11.4731 16.8133 11.2093C16.7717 10.8754 16.9583 10.8469 17.2221 10.8528C17.8174 10.8659 18.4127 10.8671 19.0081 10.8528C19.235 10.8469 19.3075 10.917 19.3051 11.1463C19.2944 12.3013 19.2909 13.4575 19.3063 14.6125C19.3099 14.8954 19.1851 14.9156 18.9617 14.9108C18.3842 14.8989 17.8055 14.8906 17.228 14.9144C16.9119 14.9274 16.761 14.8419 16.8145 14.508C16.868 14.1741 16.7373 14.0683 16.3879 14.06C16.0065 14.0517 15.991 14.2454 16.0231 14.508C16.0623 14.8217 15.9162 14.8763 15.6322 14.8799C14.5568 14.893 14.5568 14.9037 14.5568 16.0076C14.5568 17.424 14.5568 18.8416 14.5568 20.403H14.5591Z" fill="#C0F737"/>
<path d="M2.55392 29.7655C1.4108 27.711 0.660998 25.6481 0.303326 23.4593C-0.600955 17.9326 0.502955 12.8278 3.79924 8.2909C7.17396 3.64591 11.756 0.878402 17.4716 0.173752C23.899 -0.618831 29.4863 1.30618 34.1016 5.82521C37.55 9.20112 39.4726 13.3649 39.9134 18.1893C40.2842 22.2425 39.4583 26.0462 37.5428 29.6277C37.3266 30.0329 37.1982 30.1362 36.8394 29.7382C36.2191 29.0502 35.562 28.3895 34.8716 27.7728C34.4806 27.4234 34.439 27.1489 34.6589 26.6736C37.9872 19.4643 35.499 10.8623 28.8458 6.50016C19.2671 0.221282 6.29463 5.70995 4.16405 16.9416C3.55089 20.1761 3.88955 23.312 5.18359 26.3361C5.35827 26.7437 5.30361 26.9825 4.99584 27.2808C4.18068 28.0722 3.40117 28.8981 2.55274 29.7667L2.55392 29.7655Z" fill="#C0F737"/>
<path d="M19.9766 39.9775C15.7855 39.9442 11.9628 38.7464 8.51205 36.3556C8.16745 36.1167 8.11398 35.9777 8.44076 35.6723C9.15491 35.0021 9.84411 34.3046 10.5202 33.5952C10.7555 33.348 10.9159 33.3136 11.2154 33.512C13.3377 34.9154 15.6703 35.7484 18.2013 36.0193C21.7768 36.4031 25.1278 35.7092 28.2149 33.8614C28.7164 33.5607 29.0039 33.5144 29.4151 33.9945C30.0163 34.6967 30.7079 35.323 31.3769 35.9646C31.6098 36.1868 31.5777 36.3009 31.3235 36.4732C28.7366 38.2319 25.9037 39.35 22.8011 39.7766C21.8648 39.905 20.926 40 19.9778 39.9775H19.9766Z" fill="#C0F737"/>
<path d="M25.5959 10.6732C25.2715 11.4896 24.9816 12.2726 24.6489 13.0367C24.5003 13.3777 24.511 13.6142 24.7606 13.9172C25.6815 15.033 25.6661 15.0378 27.1062 14.7431C27.351 14.6932 27.4449 14.5601 27.5269 14.3474C27.8263 13.5691 28.146 12.7991 28.4823 11.9673C29.1097 13.0724 29.0883 14.099 28.4894 15.1412C27.8121 16.3199 27.3724 17.5736 27.3902 18.9579C27.4009 19.7968 27.3926 20.6358 27.3926 21.4771C27.1954 21.5293 27.149 21.357 27.0623 21.2727C26.6226 20.8473 26.2174 20.3838 25.7552 19.9846C25.0089 19.3382 24.4908 18.6596 24.5158 17.5617C24.536 16.693 24.0096 15.9147 23.5355 15.1732C22.371 13.3564 23.4535 10.9133 25.5948 10.6732H25.5959Z" fill="#C0F737"/>
<path d="M32.065 26.26C31.8641 26.0687 31.7726 25.9605 31.6621 25.8809C31.0692 25.4579 30.8957 24.8982 30.9278 24.171C30.9872 22.8282 30.5047 22.2377 29.1857 21.924C28.5465 21.7719 28.9517 21.312 28.8756 21.0066C28.7853 20.6382 29.124 20.7666 29.2939 20.7654C30.7555 20.7559 32.2182 20.7725 33.6798 20.7511C34.0339 20.7464 34.1314 20.8224 34.1539 21.1967C34.1848 21.7208 34.0482 21.9335 33.5016 22.0333C32.6436 22.1901 32.0733 22.9827 32.065 23.8549C32.0578 24.6178 32.0638 25.3807 32.0638 26.2612L32.065 26.26Z" fill="#C0F737"/>
<path d="M33.3127 18.7714C33.5622 18.7322 33.498 18.9223 33.4992 19.0435C33.5064 19.444 33.5016 19.8444 33.5812 20.2472V18.8534C33.6311 18.8498 33.6798 18.8451 33.7298 18.8415C33.9211 19.2907 33.725 19.7945 33.889 20.2567V19.015C33.9318 19.015 33.9745 19.0138 34.0185 19.0126C34.0185 19.4642 34.0138 19.9157 34.0209 20.3684C34.0245 20.6037 33.8593 20.5514 33.7298 20.5514C32.2599 20.5538 30.79 20.5514 29.3201 20.5538C29.1525 20.5538 29.0087 20.5598 29.0135 20.3209C29.0242 19.8741 29.0159 19.4273 29.0159 18.9805C29.0622 18.9793 29.1085 18.9782 29.1537 18.977V20.3245C29.351 19.842 29.1715 19.3239 29.3961 18.8486C29.5672 19.3085 29.4567 19.7886 29.5779 20.2508C29.5779 19.8456 29.5755 19.4404 29.5791 19.0352C29.5791 18.9057 29.5328 18.731 29.768 18.7548C29.768 19.2562 29.768 19.7565 29.768 20.2579C29.856 19.747 29.9368 19.2408 29.8417 18.7381C29.9249 18.6526 29.9974 18.6645 30.0615 18.7595C30.0615 19.2527 30.0615 19.747 30.0615 20.2413C30.115 19.741 30.1792 19.242 30.0865 18.7429C30.1233 18.6656 30.1495 18.5587 30.2505 18.5646C30.3705 18.5718 30.3396 18.687 30.3396 18.7619C30.3432 19.2645 30.342 19.7672 30.4537 20.271V18.4518C30.5071 18.4518 30.5606 18.4506 30.6141 18.4494C30.7329 19.0376 30.6081 19.6483 30.7293 20.2413C30.7293 19.7351 30.7234 19.2289 30.7329 18.7239C30.7353 18.5741 30.6402 18.34 30.9492 18.3638C30.8624 18.9948 30.9159 19.6222 30.9765 20.2508C30.9908 19.6222 31.1048 18.9924 30.9694 18.365C31.0478 18.3175 31.1239 18.1891 31.2094 18.3555C31.2094 18.9865 31.2094 19.6198 31.2094 20.252C31.2213 20.252 31.2344 20.252 31.2463 20.2508V18.3424C31.2807 18.2604 31.3271 18.1571 31.4174 18.1689C31.5207 18.1832 31.4946 18.302 31.4946 18.3793C31.497 19.0055 31.4958 19.6317 31.5778 20.2603V18.1725L31.7121 18.1642C31.9628 18.8368 31.7204 19.5616 31.8808 20.2472C31.8808 19.6721 31.8796 19.097 31.8808 18.5219C31.8808 18.365 31.8677 18.1654 32.1113 18.3698C31.9818 18.996 32.0816 19.621 32.1184 20.2472C32.1505 19.6222 32.2397 18.9972 32.1363 18.3709C32.4464 18.3567 32.3407 18.5955 32.3442 18.7417C32.3561 19.2467 32.349 19.7517 32.4322 20.2567V18.4601C32.4892 18.4565 32.5462 18.4518 32.6033 18.4482C32.7292 19.0447 32.5938 19.6721 32.7364 20.271C32.7364 19.7672 32.7352 19.2633 32.7375 18.7595C32.7375 18.6835 32.7114 18.5682 32.8362 18.5694C32.9407 18.5694 32.955 18.6799 32.9847 18.7571C32.9847 19.2586 32.9847 19.7624 32.9847 20.2651H33.0227V18.7738C33.081 18.6728 33.1511 18.6478 33.239 18.7381C33.239 19.2408 33.239 19.7434 33.239 20.2461C33.2628 20.2461 33.2865 20.2461 33.3103 20.2461V18.7678L33.3127 18.7714Z" fill="#C0F737"/>
<path d="M22.6572 30.2551C22.6481 30.1745 22.5541 30.1139 22.4729 30.1139C22.2102 30.1139 21.9771 29.9597 21.8794 29.7211C21.7796 29.4768 21.844 29.192 22.0397 29.0124C22.0693 28.9853 22.0876 28.9479 22.0909 28.9078C22.0941 28.8677 22.0821 28.8278 22.0571 28.7962C21.9237 28.6266 21.7714 28.4728 21.6031 28.3377C21.5378 28.2853 21.4419 28.2926 21.3852 28.3553C21.2144 28.5445 20.9075 28.6148 20.6703 28.5159C20.4236 28.4121 20.2679 28.162 20.2832 27.8936C20.2856 27.853 20.2724 27.813 20.2462 27.7818C20.22 27.7507 20.1829 27.7307 20.1425 27.7261C19.9284 27.7013 19.7124 27.7006 19.4976 27.7244C19.4577 27.7289 19.4209 27.7482 19.3945 27.7786C19.3682 27.8091 19.3544 27.8483 19.3558 27.8885C19.3651 28.1543 19.2076 28.3999 18.9633 28.5C18.729 28.5957 18.4242 28.5259 18.2537 28.3384C18.2266 28.3087 18.1892 28.2903 18.1491 28.2869C18.109 28.2836 18.0691 28.2955 18.0374 28.3203C17.8658 28.4548 17.7102 28.6086 17.5737 28.7787C17.5483 28.8103 17.536 28.8505 17.5391 28.891C17.5423 28.9314 17.5608 28.9691 17.5908 28.9965C17.7904 29.1772 17.8547 29.4645 17.7511 29.7116C17.6522 29.9473 17.4075 30.0991 17.1274 30.0991C17.0366 30.0962 16.9719 30.1572 16.9618 30.2399C16.9367 30.4564 16.9363 30.675 16.9606 30.8916C16.9697 30.9725 17.0664 31.0326 17.1486 31.0326C17.3982 31.0263 17.6378 31.1807 17.7384 31.4253C17.8385 31.6696 17.7741 31.9544 17.5781 32.1341C17.5168 32.1905 17.5089 32.2846 17.5607 32.3501C17.694 32.5196 17.846 32.6736 18.0141 32.8088C18.0458 32.8343 18.086 32.8467 18.1266 32.8435C18.1672 32.8403 18.205 32.8217 18.2322 32.7915C18.4037 32.6019 18.7106 32.5317 18.9468 32.6308C19.1942 32.7344 19.3498 32.9844 19.3346 33.2529C19.3322 33.2935 19.3455 33.3335 19.3716 33.3646C19.3978 33.3958 19.4349 33.4157 19.4753 33.4204C19.5848 33.4332 19.695 33.4395 19.8055 33.4395C19.9103 33.4395 20.0152 33.4338 20.1201 33.4221C20.1601 33.4177 20.1969 33.3983 20.2232 33.3679C20.2495 33.3374 20.2634 33.2982 20.262 33.258C20.2524 32.9923 20.4102 32.7466 20.6542 32.6467C20.8901 32.5504 21.1935 32.6209 21.3641 32.8082C21.3912 32.8378 21.4286 32.8561 21.4687 32.8595C21.5087 32.8629 21.5486 32.851 21.5804 32.8263C21.7519 32.6917 21.9075 32.5379 22.044 32.3678C22.0695 32.3362 22.0819 32.296 22.0788 32.2555C22.0756 32.215 22.0571 32.1772 22.0269 32.15C21.8274 31.9694 21.7628 31.6819 21.8664 31.435C21.9638 31.2026 22.1993 31.0465 22.4527 31.0465L22.4881 31.0474C22.5704 31.0541 22.646 30.9907 22.6559 30.9068C22.6812 30.6903 22.6816 30.4717 22.6572 30.2551ZM19.8089 32.2257C18.8963 32.2257 18.1565 31.4859 18.1565 30.5733C18.1565 29.6607 18.8963 28.9209 19.8089 28.9209C20.7215 28.9209 21.4614 29.6607 21.4614 30.5733C21.4614 30.8831 21.376 31.1728 21.2276 31.4206L20.5041 30.697C20.5571 30.5719 20.5843 30.4373 20.5841 30.3014C20.5841 30.0308 20.4787 29.7764 20.2873 29.5851C20.096 29.3938 19.8416 29.2884 19.5711 29.2884C19.4808 29.2884 19.3909 29.3004 19.304 29.3241C19.285 29.3295 19.2677 29.3397 19.2538 29.3537C19.2399 29.3677 19.2299 29.385 19.2246 29.404C19.2143 29.4431 19.226 29.4831 19.2564 29.5136C19.2564 29.5136 19.6137 29.8735 19.7332 29.993C19.7457 30.0055 19.7457 30.0354 19.7439 30.0462L19.7428 30.054C19.7308 30.1854 19.7075 30.3431 19.6884 30.4038C19.6858 30.4063 19.6834 30.4085 19.6807 30.4111C19.678 30.4139 19.6754 30.4165 19.6728 30.4192C19.6114 30.4389 19.4512 30.4624 19.3178 30.4744L19.3178 30.4737L19.3118 30.4752C19.3099 30.4754 19.308 30.4755 19.3061 30.4755C19.2917 30.4755 19.2705 30.4714 19.2512 30.4522C19.1268 30.3278 18.7836 29.987 18.7836 29.987C18.7528 29.9563 18.7212 29.9499 18.7001 29.9499C18.6511 29.9499 18.6071 29.9853 18.5933 30.0362C18.4988 30.3858 18.599 30.7619 18.8548 31.0177C19.0461 31.209 19.3005 31.3144 19.5711 31.3144C19.707 31.3145 19.8416 31.2873 19.9667 31.2343L20.6981 31.9657C20.4328 32.1358 20.1241 32.2261 19.8089 32.2257Z" fill="#C0F737"/>
</svg>
