<svg width="20" height="26" viewBox="0 0 20 26" fill="none" xmlns="http://www.w3.org/2000/svg">
<path fill-rule="evenodd" clip-rule="evenodd" d="M19.6513 4.55592C19.6513 6.55486 18.0308 8.17532 16.0319 8.17532C14.033 8.17532 12.4125 6.55486 12.4125 4.55592C12.4125 2.55698 14.033 0.936523 16.0319 0.936523C18.0308 0.936523 19.6513 2.55698 19.6513 4.55592ZM17.6311 10.377C17.1224 10.5162 16.587 10.5906 16.0342 10.5906C12.7026 10.5906 10.0018 7.88983 10.0018 4.55827C10.0018 4.14543 10.0433 3.74229 10.1223 3.35276C10.0822 3.35212 10.042 3.3518 10.0018 3.3518C6.10608 3.3518 2.82796 6.35693 2.37652 10.3421L1.96044 14.0151C1.85705 14.9278 1.48715 15.7867 0.899634 16.4782C-0.347135 17.9457 0.664759 20.2423 2.55809 20.2423H17.4456C19.3389 20.2423 20.3508 17.9457 19.104 16.4782C18.5165 15.7867 18.1466 14.9278 18.0432 14.0151L17.6311 10.377ZM13.588 22.7335C13.0362 24.094 11.6388 25.0601 10.0022 25.0601C8.36561 25.0601 6.96828 24.094 6.41648 22.7335C6.39348 22.6767 6.38283 22.6159 6.38283 22.5546C6.38283 22.2726 6.61147 22.044 6.89351 22.044H13.1109C13.393 22.044 13.6216 22.2726 13.6216 22.5546C13.6216 22.6159 13.611 22.6767 13.588 22.7335Z" fill="#FF2626"/>
</svg>
