<svg width="24" height="27" viewBox="0 0 24 27" fill="none" xmlns="http://www.w3.org/2000/svg">
<path fill-rule="evenodd" clip-rule="evenodd" d="M7.9209 21.5376C8.43866 21.5376 8.8584 21.9574 8.8584 22.4751C8.8584 22.6916 8.91322 22.9154 9.03196 23.1361C9.15156 23.3585 9.33655 23.5781 9.59112 23.7743C9.84587 23.9704 10.1602 24.1349 10.5204 24.2498C10.8804 24.3646 11.2716 24.4253 11.6704 24.4253C12.0691 24.4253 12.4604 24.3646 12.8202 24.2498C13.1805 24.1349 13.4949 23.9704 13.7496 23.7743C14.0041 23.5781 14.1891 23.3585 14.3087 23.1361C14.4275 22.9154 14.4824 22.6916 14.4824 22.4751C14.4824 21.9574 14.9021 21.5376 15.4199 21.5376C15.9376 21.5376 16.3574 21.9574 16.3574 22.4751C16.3574 23.017 16.2182 23.5443 15.9601 24.0243C15.7029 24.5025 15.3355 24.9195 14.8936 25.2598C14.4521 25.5999 13.9397 25.8608 13.3901 26.0361C12.8402 26.2115 12.2564 26.3003 11.6704 26.3003C11.0844 26.3003 10.5005 26.2115 9.95062 26.0361C9.40095 25.8608 8.88864 25.5999 8.44705 25.2598C8.00529 24.9195 7.63791 24.5025 7.38065 24.0243C7.12252 23.5443 6.9834 23.017 6.9834 22.4751C6.9834 21.9574 7.40312 21.5376 7.9209 21.5376Z" fill="#FF7B00"/>
<path fill-rule="evenodd" clip-rule="evenodd" d="M7.19118 1.13331C9.56968 -0.0503528 12.2926 -0.27039 14.8031 0.48111C15.2991 0.629597 15.5808 1.15207 15.4323 1.64808C15.2838 2.14411 14.7613 2.42583 14.2653 2.27735C12.2077 1.66141 9.97593 1.84183 8.02652 2.81193C5.85638 3.89188 4.48443 6.10706 4.48443 8.53106V10.1827C4.48443 11.9624 4.04097 13.714 3.19412 15.2792L2.91112 15.8024C1.77504 17.9022 3.01709 20.4996 5.36482 20.9335C9.53343 21.704 13.8081 21.704 17.9767 20.9335L18.1769 20.8965C20.5243 20.4626 21.8321 17.9315 20.8278 15.7659L20.4971 15.0525C20.0116 14.0055 19.6959 12.8909 19.5594 11.7504C19.4979 11.2362 19.8648 10.7696 20.3789 10.7081C20.8931 10.6466 21.3597 11.0135 21.4212 11.5276C21.5343 12.4726 21.7958 13.3962 22.1981 14.2636L22.5288 14.9771C24.0484 18.2537 22.0694 22.0839 18.5178 22.7402L18.3176 22.7772C13.9236 23.5895 9.41797 23.5895 5.02402 22.7772C1.42448 22.112 -0.479832 18.1296 1.26199 14.9101L1.54501 14.387C2.24359 13.0957 2.60943 11.6507 2.60943 10.1827V8.53106C2.60943 5.39557 4.38407 2.53022 7.19118 1.13331Z" fill="#FF7B00"/>
<path fill-rule="evenodd" clip-rule="evenodd" d="M19.3252 3.35889C18.1171 3.35889 17.1377 4.33826 17.1377 5.54639C17.1377 6.75451 18.1171 7.73389 19.3252 7.73389C20.5333 7.73389 21.5127 6.75451 21.5127 5.54639C21.5127 4.33826 20.5333 3.35889 19.3252 3.35889ZM15.2627 5.54639C15.2627 3.30272 17.0816 1.48389 19.3252 1.48389C21.5689 1.48389 23.3877 3.30272 23.3877 5.54639C23.3877 7.79004 21.5689 9.60889 19.3252 9.60889C17.0816 9.60889 15.2627 7.79004 15.2627 5.54639Z" fill="#FF7B00"/>
</svg>
