<svg width="24" height="24" viewBox="0 0 24 24" fill="none" xmlns="http://www.w3.org/2000/svg">
<path fill-rule="evenodd" clip-rule="evenodd" d="M9.28292 2.54518C9.88239 2.1057 10.6313 1.92094 11.3664 2.03115C12.1015 2.14137 12.7632 2.53763 13.2074 3.1336L13.5267 2.90642C13.8737 2.6585 14.2725 2.49268 14.6929 2.42148C15.1134 2.35027 15.5445 2.37556 15.9538 2.49542C16.363 2.61527 16.7397 2.82657 17.0553 3.11335C17.3709 3.40012 17.6172 3.75488 17.7756 4.15081L18.8194 6.76032C19.4609 7.07773 20.0009 7.56821 20.3783 8.17636C20.7557 8.78451 20.9555 9.48608 20.9551 10.2018V12.0991C21.5441 12.2666 22.0623 12.6216 22.4314 13.1103C22.8004 13.5989 23 14.1945 23 14.8069C23 15.4192 22.8004 16.0148 22.4314 16.5034C22.0623 16.9921 21.5441 17.3471 20.9551 17.5146V18.3885C20.9551 19.4063 20.5508 20.3824 19.8312 21.1021C19.1115 21.8218 18.1354 22.2261 17.1176 22.2261H4.83753C3.81975 22.2261 2.84366 21.8218 2.12399 21.1021C1.40431 20.3824 1 19.4063 1 18.3885V10.2018C1.0001 9.34236 1.28855 8.50779 1.81918 7.83169C2.34981 7.1556 3.09194 6.67709 3.92675 6.47277L9.28292 2.54518ZM8.68529 6.36429H6.66931L10.1896 3.7824C10.4582 3.58564 10.7928 3.50123 11.1225 3.54708C11.4523 3.59294 11.7512 3.76544 11.9559 4.028L8.68529 6.36429ZM16.3501 4.72081C16.2781 4.54086 16.1662 4.37962 16.0228 4.24927C15.8793 4.11892 15.7082 4.02286 15.5222 3.96836C15.3362 3.91385 15.1402 3.90232 14.9491 3.93464C14.758 3.96695 14.5768 4.04227 14.4191 4.1549L11.3255 6.36429H17.0071L16.3501 4.72081ZM18.141 17.621H19.4201V18.3885C19.4201 18.9992 19.1775 19.5849 18.7457 20.0167C18.3139 20.4485 17.7283 20.6911 17.1176 20.6911H4.83753C4.22686 20.6911 3.64121 20.4485 3.2094 20.0167C2.7776 19.5849 2.53501 18.9992 2.53501 18.3885V10.2018C2.53501 9.59115 2.7776 9.0055 3.2094 8.57369C3.64121 8.14189 4.22686 7.8993 4.83753 7.8993H17.1176C17.7283 7.8993 18.3139 8.14189 18.7457 8.57369C19.1775 9.0055 19.4201 9.59115 19.4201 10.2018V11.9927H18.141C17.3946 11.9927 16.6788 12.2892 16.151 12.8169C15.6233 13.3447 15.3268 14.0605 15.3268 14.8069C15.3268 15.5532 15.6233 16.269 16.151 16.7968C16.6788 17.3245 17.3946 17.621 18.141 17.621ZM16.8618 14.8069C16.8618 14.1007 17.4349 13.5277 18.141 13.5277H20.1876C20.5269 13.5277 20.8523 13.6624 21.0922 13.9023C21.332 14.1422 21.4668 14.4676 21.4668 14.8069C21.4668 15.1461 21.332 15.4715 21.0922 15.7114C20.8523 15.9513 20.5269 16.086 20.1876 16.086H18.141C17.4349 16.086 16.8618 15.513 16.8618 14.8069ZM8.38852 17.9076C8.53243 18.0513 8.7275 18.132 8.93089 18.132C9.13428 18.132 9.32935 18.0513 9.47326 17.9076L12.5433 14.8376C12.6789 14.6921 12.7527 14.4996 12.7492 14.3008C12.7456 14.102 12.6651 13.9122 12.5245 13.7716C12.3839 13.631 12.1941 13.5504 11.9953 13.5469C11.7965 13.5434 11.604 13.6172 11.4585 13.7528L9.6984 15.513V11.2252C9.6984 11.0216 9.61753 10.8264 9.4736 10.6825C9.32966 10.5385 9.13445 10.4577 8.93089 10.4577C8.72734 10.4577 8.53212 10.5385 8.38818 10.6825C8.24425 10.8264 8.16339 11.0216 8.16339 11.2252V15.513L6.40324 13.7528C6.33297 13.6774 6.24824 13.6169 6.1541 13.575C6.05995 13.533 5.95832 13.5105 5.85526 13.5087C5.75221 13.5068 5.64985 13.5258 5.55428 13.5644C5.45871 13.603 5.3719 13.6604 5.29902 13.7333C5.22613 13.8062 5.16868 13.893 5.13008 13.9886C5.09148 14.0842 5.07252 14.1865 5.07434 14.2896C5.07616 14.3926 5.09871 14.4943 5.14066 14.5884C5.18261 14.6826 5.24309 14.7673 5.3185 14.8376L8.38852 17.9076Z" fill="#3E4A59"/>
</svg>
