<svg width="24" height="24" viewBox="0 0 24 24" fill="none" xmlns="http://www.w3.org/2000/svg">
<path d="M20.6 7.87461V18.5996C20.6 21.8996 18.631 22.9996 16.2 22.9996H7.4C4.969 22.9996 3 21.8996 3 18.5996V7.87461C3 4.29961 4.969 3.47461 7.4 3.47461C7.4 4.15661 7.67497 4.77261 8.12597 5.22361C8.57697 5.67461 9.193 5.94961 9.875 5.94961H13.725C15.089 5.94961 16.2 4.83861 16.2 3.47461C18.631 3.47461 20.6 4.29961 20.6 7.87461Z" stroke="#3E4A59" stroke-width="1.6" stroke-linecap="round" stroke-linejoin="round"/>
<path d="M16.1999 3.475C16.1999 4.839 15.0889 5.95 13.7249 5.95H9.8749C9.1929 5.95 8.57687 5.675 8.12587 5.224C7.67487 4.773 7.3999 4.157 7.3999 3.475C7.3999 2.111 8.5109 1 9.8749 1H13.7249C14.4069 1 15.0229 1.275 15.4739 1.726C15.9249 2.177 16.1999 2.793 16.1999 3.475Z" stroke="#3E4A59" stroke-width="1.6" stroke-linecap="round" stroke-linejoin="round"/>
<path d="M7.3999 13.0996H11.7999" stroke="#3E4A59" stroke-width="1.6" stroke-linecap="round" stroke-linejoin="round"/>
<path d="M7.3999 17.5H16.1999" stroke="#3E4A59" stroke-width="1.6" stroke-linecap="round" stroke-linejoin="round"/>
</svg>
