<svg width="52" height="52" viewBox="0 0 52 52" fill="none" xmlns="http://www.w3.org/2000/svg">
<path d="M15.2632 10.3019C15.2632 11.5839 15.6114 12.7822 16.2196 13.8109C16.405 14.1274 16.7554 14.3015 17.1194 14.3015H22.4326C22.4794 14.3015 22.5242 14.2829 22.5573 14.2499C22.5904 14.2168 22.609 14.1719 22.609 14.1252C22.609 11.0299 23.9723 8.25576 26.1315 6.36561C26.6583 5.90438 26.7555 5.0814 26.1858 4.67443C25.152 3.93783 23.9354 3.50012 22.6693 3.40931C21.4032 3.31851 20.1366 3.57811 19.0083 4.15965C17.88 4.74119 16.9337 5.62221 16.273 6.70609C15.6124 7.78996 15.263 9.03257 15.2632 10.3019ZM39.8215 14.1252C39.8209 14.1721 39.8018 14.217 39.7684 14.25C39.735 14.283 39.6899 14.3015 39.6429 14.3015H26.1813C26.1578 14.3018 26.1345 14.2975 26.1127 14.2888C26.0909 14.2801 26.0711 14.2672 26.0543 14.2508C26.0375 14.2344 26.0241 14.2149 26.0148 14.1933C26.0056 14.1718 26.0007 14.1486 26.0004 14.1252C26.0465 12.3227 26.7949 10.6095 28.0861 9.35094C29.3772 8.09238 31.109 7.38801 32.9121 7.38801C34.7151 7.38801 36.4469 8.09238 37.7381 9.35094C39.0292 10.6095 39.7754 12.3227 39.8215 14.1252Z" fill="#8F6DFF"/>
<path fill-rule="evenodd" clip-rule="evenodd" d="M11.3813 9.59896C11.5444 9.75052 11.6761 9.93274 11.7689 10.1352C11.8616 10.3377 11.9136 10.5564 11.9217 10.779C11.9299 11.0015 11.8942 11.2235 11.8166 11.4323C11.739 11.641 11.621 11.8324 11.4694 11.9956L9.35095 14.2746C8.44591 15.2491 7.75301 16.4008 7.3161 17.6569C7.11714 18.2267 7.77733 18.6744 8.32674 18.4257C9.40514 17.941 10.5743 17.6913 11.7566 17.6931H40.2444C42.1623 17.6935 44.0218 18.3526 45.5117 19.5602C47.0017 20.7678 48.0316 22.4505 48.429 24.3267C48.5647 24.9666 48.0401 25.5205 47.389 25.5205H42.9643C41.0155 25.5205 39.1465 26.2947 37.7685 27.6727C36.3904 29.0507 35.6163 30.9197 35.6163 32.8685C35.6163 34.8174 36.3904 36.6864 37.7685 38.0644C39.1465 39.4424 41.0155 40.2166 42.9643 40.2166H48.5805C48.5963 40.2166 48.6099 40.2279 48.6099 40.2437C48.6099 42.4624 47.7285 44.5902 46.1597 46.159C44.5909 47.7278 42.4631 48.6092 40.2444 48.6092H11.7566C9.53792 48.6092 7.41013 47.7278 5.8413 46.159C4.27247 44.5902 3.39111 42.4624 3.39111 40.2437V20.8155C3.39111 17.5326 4.63463 14.3718 6.86618 11.9662L8.98468 9.68713C9.13624 9.52397 9.31846 9.39226 9.52094 9.29952C9.72341 9.20679 9.94216 9.15484 10.1647 9.14665C10.3873 9.13847 10.6092 9.1742 10.818 9.2518C11.0267 9.32941 11.2181 9.44737 11.3813 9.59896ZM12.4349 38.6272C11.9851 38.6272 11.5538 38.8058 11.2358 39.1238C10.9178 39.4418 10.7392 39.8731 10.7392 40.3229C10.7392 40.7726 10.9178 41.2039 11.2358 41.5219C11.5538 41.8399 11.9851 42.0186 12.4349 42.0186H18.6796C19.1293 42.0186 19.5606 41.8399 19.8786 41.5219C20.1966 41.2039 20.3753 40.7726 20.3753 40.3229C20.3753 39.8731 20.1966 39.4418 19.8786 39.1238C19.5606 38.8058 19.1293 38.6272 18.6796 38.6272H12.4349Z" fill="#8F6DFF"/>
<path d="M42.9645 28.9121H47.4796C47.7794 28.9121 48.0669 29.0312 48.2789 29.2432C48.4909 29.4552 48.61 29.7428 48.61 30.0426V35.6949C48.61 35.9947 48.4909 36.2823 48.2789 36.4943C48.0669 36.7063 47.7794 36.8254 47.4796 36.8254H42.9645C41.9151 36.8254 40.9087 36.4085 40.1667 35.6665C39.4247 34.9245 39.0078 33.9181 39.0078 32.8688C39.0078 31.8194 39.4247 30.813 40.1667 30.071C40.9087 29.329 41.9151 28.9121 42.9645 28.9121Z" fill="#8F6DFF"/>
</svg>
