<svg width="24" height="24" viewBox="0 0 24 24" fill="none" xmlns="http://www.w3.org/2000/svg">
<path d="M11.8936 10.9028C12.6752 10.9028 13.4392 10.671 14.089 10.2368C14.7388 9.80256 15.2453 9.1854 15.5443 8.46333C15.8434 7.74126 15.9216 6.94673 15.769 6.18021C15.6165 5.4137 15.2401 4.70963 14.6874 4.15705C14.1347 3.60447 13.4306 3.2282 12.664 3.07583C11.8975 2.92345 11.103 3.00182 10.381 3.30101C9.65895 3.60021 9.04188 4.10679 8.60779 4.7567C8.17371 5.4066 7.9421 6.17064 7.94226 6.95218C7.94353 7.99969 8.36026 9.00392 9.10104 9.74455C9.84182 10.4852 10.8461 10.9017 11.8936 10.9028ZM11.8936 4.60023C12.3588 4.60023 12.8135 4.73817 13.2003 4.9966C13.5871 5.25504 13.8885 5.62237 14.0666 6.05213C14.2446 6.48189 14.2912 6.95479 14.2004 7.41103C14.1097 7.86726 13.8857 8.28634 13.5567 8.61527C13.2278 8.9442 12.8087 9.1682 12.3525 9.25895C11.8962 9.3497 11.4233 9.30312 10.9936 9.12511C10.5638 8.94709 10.1965 8.64564 9.93806 8.25886C9.67962 7.87208 9.54168 7.41736 9.54168 6.95218C9.54253 6.32867 9.79059 5.73093 10.2315 5.29003C10.6724 4.84914 11.2701 4.60107 11.8936 4.60023ZM4.42911 13.2251C5.03015 13.2251 5.6177 13.0469 6.11744 12.713C6.61719 12.3791 7.00669 11.9045 7.2367 11.3492C7.46671 10.7939 7.52689 10.1829 7.40963 9.59336C7.29238 9.00387 7.00295 8.46239 6.57795 8.03739C6.15295 7.61239 5.61147 7.32296 5.02198 7.20571C4.43249 7.08845 3.82146 7.14863 3.26617 7.37864C2.71089 7.60864 2.23627 7.99815 1.90235 8.4979C1.56843 8.99764 1.3902 9.58518 1.3902 10.1862C1.3902 10.9922 1.71037 11.7652 2.28028 12.3351C2.85019 12.905 3.62315 13.2251 4.42911 13.2251ZM4.42911 8.74674C4.71382 8.74674 4.99213 8.83116 5.22885 8.98934C5.46557 9.14751 5.65007 9.37233 5.75902 9.63536C5.86798 9.89839 5.89648 10.1878 5.84094 10.4671C5.7854 10.7463 5.6483 11.0028 5.44698 11.2041C5.24567 11.4054 4.98918 11.5425 4.70994 11.598C4.43071 11.6536 4.14128 11.6251 3.87825 11.5161C3.61522 11.4072 3.3904 11.2227 3.23223 10.986C3.07406 10.7492 2.98963 10.4709 2.98963 10.1862C2.98963 9.80445 3.14129 9.43831 3.41125 9.16836C3.6812 8.8984 4.04734 8.74674 4.42911 8.74674ZM19.3574 13.2251C19.9584 13.2251 20.5459 13.0469 21.0457 12.713C21.5454 12.3791 21.9349 11.9045 22.1649 11.3492C22.395 10.7939 22.4551 10.1829 22.3379 9.59336C22.2206 9.00387 21.9312 8.46239 21.5062 8.03739C21.0812 7.61239 20.5397 7.32296 19.9502 7.20571C19.3607 7.08845 18.7497 7.14863 18.1944 7.37864C17.6391 7.60864 17.1645 7.99815 16.8306 8.4979C16.4967 8.99764 16.3185 9.58518 16.3185 10.1862C16.3185 10.9922 16.6386 11.7652 17.2085 12.3351C17.7784 12.905 18.5514 13.2251 19.3574 13.2251ZM19.3574 8.74674C19.6421 8.74674 19.9204 8.83116 20.1571 8.98934C20.3938 9.14751 20.5783 9.37233 20.6873 9.63536C20.7962 9.89839 20.8247 10.1878 20.7692 10.4671C20.7136 10.7463 20.5765 11.0028 20.3752 11.2041C20.1739 11.4054 19.9174 11.5425 19.6382 11.598C19.359 11.6536 19.0695 11.6251 18.8065 11.5161C18.5435 11.4072 18.3186 11.2227 18.1605 10.986C18.0023 10.7492 17.9179 10.4709 17.9179 10.1862C17.9179 9.80445 18.0695 9.43831 18.3395 9.16836C18.6094 8.8984 18.9756 8.74674 19.3574 8.74674ZM19.4637 14.8294C18.7627 14.834 18.0738 15.0135 17.4596 15.3516C16.8758 14.4272 16.0709 13.6627 15.1178 13.127C14.1647 12.5913 13.0932 12.3013 12 12.2831C10.9068 12.3013 9.83531 12.5913 8.88218 13.127C7.92905 13.6627 7.12425 14.4272 6.54036 15.3516C5.92618 15.0135 5.23734 14.834 4.53628 14.8294C3.27824 14.8907 2.09559 15.4473 1.2465 16.3776C0.397405 17.3079 -0.0491565 18.5364 0.00430147 19.7948C0.00430147 20.0069 0.0885567 20.2103 0.238532 20.3603C0.388507 20.5102 0.591918 20.5945 0.804015 20.5945C1.01611 20.5945 1.21952 20.5102 1.3695 20.3603C1.51947 20.2103 1.60373 20.0069 1.60373 19.7948C1.55131 18.9607 1.82978 18.1396 2.37874 17.5095C2.9277 16.8794 3.70291 16.4911 4.53628 16.4288C4.97821 16.4322 5.41208 16.5475 5.79742 16.7639C5.42053 17.7137 5.22757 18.7265 5.22883 19.7484C5.22883 19.9605 5.31308 20.1639 5.46306 20.3139C5.61303 20.4639 5.81644 20.5481 6.02854 20.5481C6.24064 20.5481 6.44405 20.4639 6.59402 20.3139C6.744 20.1639 6.82825 19.9605 6.82825 19.7484C6.82825 16.5136 9.14742 13.8825 12 13.8825C14.8526 13.8825 17.1717 16.5136 17.1717 19.7484C17.1717 19.9605 17.256 20.1639 17.406 20.3139C17.556 20.4639 17.7594 20.5481 17.9715 20.5481C18.1836 20.5481 18.387 20.4639 18.5369 20.3139C18.6869 20.1639 18.7712 19.9605 18.7712 19.7484C18.7724 18.7265 18.5795 17.7137 18.2026 16.7639C18.5879 16.5475 19.0218 16.4322 19.4637 16.4288C20.2971 16.4911 21.0723 16.8794 21.6213 17.5095C22.1702 18.1396 22.4487 18.9607 22.3963 19.7948C22.3963 20.0069 22.4805 20.2103 22.6305 20.3603C22.7805 20.5102 22.9839 20.5945 23.196 20.5945C23.4081 20.5945 23.6115 20.5102 23.7615 20.3603C23.9114 20.2103 23.9957 20.0069 23.9957 19.7948C24.0492 18.5364 23.6026 17.3079 22.7535 16.3776C21.9044 15.4473 20.7218 14.8907 19.4637 14.8294Z" fill="#3E4A59"/>
</svg>
