<svg width="24" height="24" viewBox="0 0 24 24" fill="none" xmlns="http://www.w3.org/2000/svg">
<path fill-rule="evenodd" clip-rule="evenodd" d="M12 2C10.3701 2 9.04878 3.32593 9.04878 4.96154C9.04878 5.80507 9.40031 6.56548 9.96291 7.10426C9.8939 7.22715 9.82256 7.35547 9.74874 7.4883L7.82004 10.9585C7.62932 11.3017 7.51584 11.5037 7.42024 11.6404C7.39029 11.6832 7.36909 11.709 7.35625 11.7233L7.35444 11.7236C7.3381 11.7133 7.31037 11.6942 7.26925 11.6609C7.13965 11.5556 6.97491 11.3924 6.69724 11.1149L6.61243 11.03C6.27002 10.6875 5.95867 10.3762 5.67542 10.1216C5.77482 9.85624 5.82927 9.56887 5.82927 9.26923C5.82927 7.931 4.7482 6.84615 3.41463 6.84615C2.08107 6.84615 1 7.931 1 9.26923C1 10.3279 1.67653 11.2279 2.61939 11.5578C2.62262 11.6193 2.62654 11.6814 2.63096 11.744C2.65566 12.0938 2.70053 12.5125 2.75188 12.9915L2.95006 14.8405C2.9822 15.1403 3.01299 15.4388 3.04345 15.7341C3.16368 16.8999 3.27868 18.0149 3.45028 18.9551C3.55876 19.5494 3.69557 20.1094 3.88504 20.5954C4.07291 21.0775 4.33209 21.5381 4.71518 21.8822C5.39113 22.4893 6.20635 22.7545 7.17952 22.8795C8.11842 23 9.30232 23 10.7768 23H13.2232C14.6976 23 15.8816 23 16.8205 22.8795C17.7936 22.7545 18.6089 22.4893 19.2848 21.8822C19.6679 21.5381 19.9271 21.0775 20.115 20.5954C20.3044 20.1094 20.4412 19.5494 20.5497 18.9551C20.7213 18.015 20.8363 16.9001 20.9566 15.7344C20.9869 15.4392 21.0179 15.1402 21.0499 14.8405L21.2482 12.9916C21.2995 12.5125 21.3443 12.0938 21.369 11.744C21.3735 11.6814 21.3774 11.6193 21.3806 11.5578C22.3235 11.2279 23 10.3279 23 9.26923C23 7.931 21.9189 6.84615 20.5854 6.84615C19.2518 6.84615 18.1707 7.931 18.1707 9.26923C18.1707 9.56887 18.2251 9.85625 18.3246 10.1216C18.0413 10.3762 17.73 10.6875 17.3875 11.03L17.3028 11.1149C17.0251 11.3924 16.8604 11.5556 16.7308 11.6609C16.6896 11.6942 16.6619 11.7133 16.6455 11.7236L16.6437 11.7233C16.6309 11.709 16.6097 11.6832 16.5798 11.6404C16.4841 11.5037 16.3707 11.3017 16.18 10.9585L14.2512 7.4882C14.1774 7.35541 14.1061 7.22712 14.0371 7.10426C14.5996 6.56548 14.9512 5.80507 14.9512 4.96154C14.9512 3.32593 13.6299 2 12 2ZM10.6585 4.96154C10.6585 4.21807 11.2591 3.61538 12 3.61538C12.7409 3.61538 13.3415 4.21807 13.3415 4.96154C13.3415 5.48389 13.0452 5.93819 12.6083 6.16184C12.4266 6.25487 12.2206 6.30769 12 6.30769C11.7794 6.30769 11.5734 6.25487 11.3917 6.16184C10.9548 5.93819 10.6585 5.48389 10.6585 4.96154ZM11.1464 8.29001C11.2334 8.13338 11.3131 7.99016 11.387 7.85893C11.585 7.90099 11.7902 7.92308 12 7.92308C12.2098 7.92308 12.415 7.90099 12.613 7.85893C12.6869 7.99016 12.7666 8.13338 12.8536 8.29L14.792 11.7775C14.9586 12.0775 15.1127 12.3549 15.2623 12.5687C15.4218 12.7965 15.6392 13.048 15.9723 13.1953C16.2603 13.3224 16.5778 13.3668 16.8894 13.3236C17.2497 13.2737 17.5276 13.0918 17.7433 12.9167C17.9457 12.7523 18.17 12.528 18.4128 12.2853L18.4388 12.2593C18.8417 11.8566 19.1363 11.5647 19.3612 11.3581C19.4899 11.4342 19.6261 11.4986 19.7686 11.55C19.767 11.5757 19.7652 11.6023 19.7633 11.6298C19.7409 11.947 19.6993 12.337 19.6462 12.8319L19.4494 14.6677C19.4151 14.9881 19.3828 15.3003 19.3514 15.6039C19.2769 16.3263 19.2073 16.9994 19.1269 17.6154H4.87311C4.79268 16.9994 4.72315 16.3263 4.64854 15.6039C4.61719 15.3003 4.58493 14.9881 4.55059 14.6677L4.35381 12.8319C4.30076 12.337 4.25908 11.947 4.23669 11.6298C4.23475 11.6023 4.23298 11.5757 4.23139 11.55C4.3739 11.4986 4.51017 11.4342 4.63876 11.3581C4.86377 11.5647 5.15836 11.8566 5.56119 12.2593L5.58714 12.2853C5.82997 12.528 6.05432 12.7523 6.25676 12.9167C6.47245 13.0918 6.75031 13.2737 7.1106 13.3236C7.42217 13.3668 7.73968 13.3224 8.02762 13.1953C8.36074 13.048 8.57825 12.7965 8.73766 12.5687C8.88721 12.3549 9.04133 12.0776 9.20806 11.7775L11.1464 8.29001ZM5.15104 19.2308C5.22118 19.528 5.29827 19.7867 5.38417 20.007C5.5224 20.3615 5.66421 20.5666 5.78879 20.6785C6.12816 20.9834 6.58145 21.1741 7.38383 21.2771C8.20869 21.3831 9.2894 21.3846 10.8325 21.3846H13.1675C14.7106 21.3846 15.7913 21.3831 16.6161 21.2771C17.4185 21.1741 17.8719 20.9834 18.2112 20.6785C18.3358 20.5666 18.4777 20.3615 18.6158 20.007C18.7017 19.7867 18.7788 19.528 18.849 19.2308H5.15104ZM2.60976 9.26923C2.60976 8.82316 2.97012 8.46154 3.41463 8.46154C3.85915 8.46154 4.21951 8.82316 4.21951 9.26923C4.21951 9.47157 4.14641 9.65476 4.02418 9.79673C3.87728 9.96737 3.66352 10.0741 3.42434 10.0769L3.41463 10.0769C2.97012 10.0769 2.60976 9.7153 2.60976 9.26923ZM19.7805 9.26923C19.7805 8.82316 20.1409 8.46154 20.5854 8.46154C21.0299 8.46154 21.3902 8.82316 21.3902 9.26923C21.3902 9.7153 21.0299 10.0769 20.5854 10.0769L20.5757 10.0769C20.3365 10.0741 20.1227 9.96737 19.9758 9.79673C19.8536 9.65476 19.7805 9.47157 19.7805 9.26923Z" fill="#3E4A59"/>
</svg>
