<svg width="50" height="50" viewBox="0 0 50 50" fill="none" xmlns="http://www.w3.org/2000/svg">
<path d="M24.9998 14.1213C19.8664 14.1213 15.6901 18.2975 15.6901 23.431C15.6901 28.5645 19.8664 32.7408 24.9998 32.7408C30.1332 32.7408 34.3096 28.5644 34.3096 23.431C34.3096 18.2976 30.1332 14.1213 24.9998 14.1213ZM24.9998 29.8111C21.482 29.8111 18.6198 26.9489 18.6198 23.431C18.6198 19.9131 21.482 17.051 24.9998 17.051C28.5177 17.051 31.3799 19.9127 31.3799 23.431C31.3799 26.9489 28.5177 29.8111 24.9998 29.8111Z" fill="white"/>
<path d="M48.1922 1.80781C47.0269 0.641992 45.477 0 43.8282 0H6.17178C4.52305 0 2.97314 0.641992 1.80781 1.80781C0.641992 2.97314 0 4.52305 0 6.17178V12.4481C0 14.0965 0.641992 15.6464 1.80781 16.8121C2.97363 17.9778 4.52344 18.6199 6.17178 18.6199H9.41397V45.3973C9.41397 46.6267 9.89268 47.7825 10.762 48.6519C11.6313 49.5213 12.7872 50 14.0167 50H35.9834C37.2129 50 38.3688 49.5213 39.2381 48.6519C40.107 47.7825 40.5862 46.6267 40.5862 45.3972V18.6195H43.8281C45.4769 18.6195 47.0268 17.9779 48.1921 16.8121C49.358 15.6465 50 14.0965 50 12.4482V6.17188C50 4.52314 49.358 2.97324 48.1922 1.80791V1.80781ZM37.6564 45.3972C37.657 45.617 37.614 45.8347 37.5298 46.0377C37.4457 46.2408 37.3221 46.4251 37.1662 46.5801C37.0113 46.736 36.8269 46.8596 36.6239 46.9438C36.4208 47.0279 36.2031 47.0709 35.9833 47.0703H14.0166C13.7968 47.0709 13.5791 47.0279 13.376 46.9438C13.173 46.8596 12.9886 46.736 12.8337 46.5801C12.6779 46.4251 12.5543 46.2407 12.4701 46.0377C12.386 45.8347 12.3429 45.617 12.3435 45.3972V10.7746H37.6563L37.6564 45.3972ZM47.0703 12.4482C47.0703 13.3142 46.7331 14.1282 46.1204 14.7404C45.5081 15.3531 44.6941 15.6903 43.8282 15.6903H40.5857V10.7751H42.2592C43.068 10.7751 43.724 10.1189 43.724 9.31025C43.724 8.50117 43.068 7.84541 42.2592 7.84541H7.74082C6.93203 7.84541 6.27598 8.50117 6.27598 9.31025C6.27598 10.1189 6.93203 10.7751 7.74082 10.7751H9.41387V15.6903H6.17188C5.30596 15.6903 4.49189 15.3531 3.8793 14.7404C3.26699 14.1281 2.92979 13.3142 2.92979 12.4482V6.17188C2.92979 5.30596 3.26699 4.49189 3.87969 3.8793C4.49189 3.26689 5.30586 2.92969 6.17178 2.92969H43.8282C44.6941 2.92969 45.5082 3.26689 46.1208 3.87959C46.7331 4.49189 47.0703 5.30586 47.0703 6.17178V12.4482Z" fill="white"/>
<path d="M32.8447 39.2253H17.1549C16.3458 39.2253 15.6901 39.8811 15.6901 40.6902C15.6901 41.4989 16.3458 42.155 17.1549 42.155H32.8447C33.6538 42.155 34.3096 41.4989 34.3096 40.6902C34.3096 39.8811 33.6538 39.2253 32.8447 39.2253Z" fill="white"/>
</svg>
