<svg width="24" height="24" viewBox="0 0 24 24" fill="none" xmlns="http://www.w3.org/2000/svg">
<path fill-rule="evenodd" clip-rule="evenodd" d="M7.5 11.9101C7.20804 11.8027 6.95584 11.6087 6.77714 11.354C6.59843 11.0994 6.50174 10.7962 6.5 10.4851V9.50512C6.5 9.10512 6.66 8.72512 6.94 8.44012C7.22289 8.15844 7.6058 8.00024 8.005 8.00012H19C19.4 8.00012 19.78 8.16012 20.065 8.44012C20.345 8.72012 20.505 9.10512 20.505 9.50512V10.4851C20.505 10.8851 20.345 11.2751 20.06 11.5551C19.9 11.7151 19.71 11.8351 19.505 11.9101V15.0701C19.705 15.0251 19.875 15.0001 20.005 15.0001C20.7 15.0001 22.005 15.1151 22.005 16.5001C22.005 16.6551 21.955 16.8551 21.825 17.0851C21.635 17.4251 21.24 17.8851 20.715 18.3851C19.56 19.4801 17.76 20.7951 16.295 21.4901C15.605 21.8151 14.975 22.0001 14.505 22.0001H10.505C9.4 22.0001 7.33 21.4251 6.37 21.1351C6.295 21.2951 6.195 21.4401 6.07 21.5651C5.79 21.8451 5.415 22.0001 5.02 22.0001H3.49C3.095 22.0001 2.72 21.8451 2.44 21.5651C2.16 21.2851 2.005 20.9101 2.005 20.5151V16.4851C2.005 16.0901 2.16 15.7151 2.44 15.4351C2.72 15.1551 3.095 15.0001 3.49 15.0001H5.02C5.415 15.0001 5.79 15.1551 6.07 15.4351C6.195 15.5601 6.295 15.7101 6.37 15.8651C6.665 15.7801 7.065 15.6651 7.505 15.5451V11.9051L7.5 11.9101ZM5 16.0001H5.015C5.145 16.0001 5.27 16.0501 5.36 16.1401C5.45 16.2301 5.5 16.3551 5.5 16.4851V20.5151C5.5 20.6451 5.45 20.7701 5.36 20.8601C5.27 20.9501 5.145 21.0001 5.015 21.0001H3.485C3.355 21.0001 3.23 20.9501 3.14 20.8601C3.05 20.7701 3 20.6451 3 20.5151V16.4851C3 16.3551 3.05 16.2301 3.14 16.1401C3.23 16.0501 3.355 16.0001 3.485 16.0001H4V19.0001C4 19.2751 4.225 19.5001 4.5 19.5001C4.775 19.5001 5 19.2751 5 19.0001V16.0001ZM6.5 20.1351V16.8701C7.33 16.6151 9.445 16.0001 10.5 16.0001C11.62 16.0001 12.91 16.1551 13.765 16.5951C14.185 16.8101 14.5 17.0851 14.5 17.5001V17.5101C14.5 17.6251 14.42 17.7001 14.32 17.7601C14.115 17.8901 13.825 17.9601 13.515 18.0101C12.425 18.1801 11.06 18.0101 11.06 18.0101C10.9947 18.0019 10.9284 18.0066 10.8649 18.0241C10.8014 18.0415 10.7419 18.0712 10.6899 18.1116C10.5849 18.1932 10.5166 18.3132 10.5 18.4451C10.4918 18.5104 10.4965 18.5768 10.514 18.6403C10.5314 18.7038 10.5611 18.7632 10.6015 18.8152C10.6831 18.9202 10.8031 18.9885 10.935 19.0051C10.935 19.0051 13.025 19.2551 14.28 18.8651C14.895 18.6751 15.32 18.3301 15.455 17.8401C16.005 17.5651 17.43 16.8651 18.62 16.4101C19.2 16.1851 19.71 16.0101 20 16.0101C20.17 16.0101 20.405 16.0101 20.625 16.0601C20.745 16.0901 20.865 16.1251 20.935 16.2301C20.98 16.2951 21 16.3801 21 16.4901C20.99 16.5151 20.935 16.6301 20.88 16.7101C20.7 16.9801 20.395 17.3101 20.015 17.6701C19.08 18.5551 17.7 19.5951 16.455 20.2901C15.69 20.7151 14.99 21.0151 14.495 21.0151H10.495C9.405 21.0151 7.315 20.4051 6.495 20.1501L6.5 20.1351ZM18.5 15.3751L18.26 15.4651C17.31 15.8301 16.205 16.3501 15.5 16.6951V12.0001H18.5V15.3751ZM14.5 15.8601C14.41 15.8051 14.32 15.7501 14.22 15.7001C13.74 15.4551 13.14 15.2801 12.5 15.1651V11.9951H14.5V15.8601ZM11.5 15.0401C11.16 15.0101 10.825 15.0001 10.5 15.0001C9.99 15.0001 9.245 15.1301 8.5 15.3001V12.0001H11.5V15.0401ZM19.5 9.50012C19.5 9.36512 19.445 9.24012 19.355 9.14512C19.26 9.05012 19.13 9.00012 19 9.00012H8.005C7.87 9.00012 7.745 9.05512 7.65 9.14512C7.55501 9.24012 7.505 9.37012 7.505 9.50012V10.4801C7.505 10.6151 7.56001 10.7501 7.655 10.8451C7.75 10.9401 7.885 10.9951 8.02001 10.9951H18.99C19.125 10.9951 19.26 10.9401 19.355 10.8451C19.45 10.7501 19.505 10.6151 19.505 10.4801V9.50012H19.5ZM13.925 2.23512L14.665 3.43012L16.1 3.73012C16.275 3.76512 16.42 3.89512 16.475 4.07012C16.53 4.24012 16.485 4.43012 16.365 4.56512L15.405 5.59012L15.545 6.95012C15.5549 7.03615 15.5415 7.12326 15.5064 7.20239C15.4712 7.28152 15.4155 7.3498 15.345 7.40012C15.205 7.50512 15.02 7.53012 14.855 7.46012L13.5 6.90012L12.145 7.46012C11.98 7.52512 11.795 7.50512 11.655 7.40012C11.515 7.29512 11.44 7.12512 11.455 6.95012L11.595 5.59012L10.635 4.56512C10.5739 4.50008 10.5315 4.4198 10.5121 4.3327C10.4928 4.2456 10.4972 4.1549 10.525 4.07012C10.58 3.90012 10.725 3.77012 10.9 3.73012L12.335 3.43012L13.075 2.23512C13.165 2.09012 13.325 2.00012 13.5 2.00012C13.675 2.00012 13.835 2.09012 13.925 2.23512ZM17.975 6.15512C17.89 6.41512 17.605 6.56012 17.345 6.47012C17.2828 6.44967 17.2253 6.4171 17.1757 6.3743C17.1261 6.3315 17.0855 6.27931 17.0563 6.22074C17.027 6.16217 17.0096 6.09838 17.0051 6.03305C17.0006 5.96773 17.009 5.90215 17.03 5.84012C17.35 4.88012 17.87 3.73012 18.575 2.96012C19.115 2.37012 19.765 2.00012 20.505 2.00012C20.78 2.00012 21.005 2.22512 21.005 2.50012C21.005 2.77512 20.78 3.00012 20.505 3.00012C20.04 3.00012 19.655 3.27012 19.315 3.64012C18.7 4.31012 18.26 5.32012 17.98 6.16012L17.975 6.15512ZM9.97501 5.84012C9.99597 5.90215 10.0044 5.96773 9.99994 6.03305C9.99543 6.09838 9.97804 6.16217 9.94875 6.22074C9.91947 6.27931 9.87887 6.3315 9.82931 6.3743C9.77976 6.4171 9.72221 6.44967 9.66 6.47012C9.59797 6.49108 9.5324 6.49956 9.46707 6.49505C9.40174 6.49054 9.33795 6.47315 9.27938 6.44386C9.22081 6.41458 9.16862 6.37399 9.12582 6.32443C9.08302 6.27487 9.05045 6.21733 9.03 6.15512C8.75 5.31512 8.31001 4.30512 7.695 3.63512C7.355 3.26512 6.965 2.99512 6.505 2.99512C6.23 2.99512 6.005 2.77012 6.005 2.49512C6.005 2.22012 6.23 1.99512 6.505 1.99512C7.245 1.99512 7.89501 2.36512 8.43501 2.95512C9.14001 3.72512 9.66 4.87512 9.98 5.83512L9.97501 5.84012ZM13.5 3.44512L13.07 4.13512C13.0344 4.19314 12.9872 4.24311 12.9312 4.28184C12.8752 4.32058 12.8118 4.34724 12.745 4.36012L11.97 4.52012L12.48 5.06512C12.58 5.17012 12.625 5.31512 12.61 5.46012L12.535 6.21512L13.305 5.89512C13.4267 5.84511 13.5633 5.84511 13.685 5.89512L14.455 6.21512L14.38 5.46012C14.365 5.31512 14.415 5.17012 14.51 5.06512L15.02 4.52012L14.245 4.36012C14.11 4.33012 13.995 4.25012 13.92 4.13512L13.49 3.44512H13.5ZM7.855 4.64512C8.05 4.84012 8.05 5.15512 7.855 5.35512C7.66 5.55012 7.345 5.55012 7.145 5.35512C6.945 5.15512 6.645 4.95012 6.34 4.85012C6.16001 4.79012 5.975 4.73512 5.85 4.85512C5.655 5.05012 5.34 5.05012 5.14 4.85512C4.945 4.66012 4.945 4.34512 5.14 4.14512C5.455 3.83012 5.895 3.73512 6.365 3.82512C6.9 3.92512 7.485 4.28512 7.85 4.64512H7.855ZM19.855 5.35512C19.66 5.55012 19.345 5.55012 19.145 5.35512C18.95 5.16012 18.95 4.84512 19.145 4.64512C19.51 4.28012 20.095 3.92512 20.63 3.82512C21.1 3.73512 21.535 3.82512 21.855 4.14512C22.05 4.34012 22.05 4.65512 21.855 4.85512C21.66 5.05012 21.345 5.05012 21.145 4.85512C21.025 4.73512 20.84 4.79012 20.655 4.85012C20.355 4.95012 20.05 5.15512 19.85 5.35512H19.855Z" fill="#3E4A59"/>
</svg>
