  <svg width="24" height="24" viewBox="0 0 25 28" fill="none" xmlns="http://www.w3.org/2000/svg">
              <path d="M16.2767 5.35755C15.8811 5.35755 15.5123 5.11172 15.3702 4.71609C14.9631 3.5676 13.8722 2.79554 12.6546 2.79554C11.4369 2.79554 10.3422 3.5676 9.93892 4.71609C9.76223 5.21543 9.21296 5.47662 8.71362 5.29993C8.21428 5.12324 7.95308 4.57397 8.12977 4.07463C8.8058 2.16176 10.6265 0.875 12.6584 0.875C14.6904 0.875 16.511 2.16176 17.1871 4.07463C17.3637 4.57397 17.1026 5.12324 16.6032 5.29993C16.4918 5.33835 16.3843 5.35755 16.2767 5.35755ZM23.5364 7.91956H1.77277C1.2427 7.91956 0.8125 7.48935 0.8125 6.95928C0.8125 6.42921 1.2427 5.99901 1.77277 5.99901H23.5402C24.0703 5.99901 24.5005 6.42921 24.5005 6.95928C24.5005 7.48935 24.0664 7.91956 23.5364 7.91956ZM13.1501 27.125H12.1591C8.61759 27.125 6.67016 27.125 5.28353 25.8306C3.90074 24.5361 3.77014 22.5887 3.53583 19.0587L2.94815 10.2242C2.91358 9.69414 3.31305 9.23705 3.84312 9.20248C4.37319 9.16791 4.83028 9.56738 4.86485 10.0975L5.45253 18.932C5.66379 22.074 5.7675 23.6527 6.59718 24.4286C7.42685 25.2045 9.00938 25.2045 12.1591 25.2045H13.1501C16.2998 25.2045 17.8823 25.2045 18.712 24.4286C19.5416 23.6527 19.6492 22.074 19.8566 18.932L20.4443 10.0975C20.4789 9.56738 20.9398 9.16791 21.466 9.20248C21.9961 9.23705 22.3956 9.69414 22.361 10.2242L21.7733 19.0587C21.539 22.5887 21.4084 24.5361 20.0256 25.8306C18.639 27.125 16.6877 27.125 13.1501 27.125Z" fill="#FF0000" />
              <path d="M10.0922 20.722C9.60442 20.722 9.18574 20.3532 9.13965 19.8577L8.49819 13.4546C8.44441 12.9284 8.82852 12.456 9.35859 12.4022C9.88482 12.3484 10.3573 12.7325 10.411 13.2626L11.0525 19.6657C11.1063 20.1919 10.7222 20.6644 10.1921 20.7181C10.1575 20.722 10.123 20.722 10.0922 20.722ZM15.2163 20.722C15.1855 20.722 15.151 20.722 15.1202 20.7181C14.594 20.6644 14.206 20.1957 14.2598 19.6657L14.9013 13.2626C14.9551 12.7364 15.4237 12.3484 15.9537 12.4022C16.48 12.456 16.8679 12.9246 16.8141 13.4546L16.1727 19.8577C16.1227 20.3532 15.7041 20.722 15.2163 20.722Z" fill="#FF0000" />
            </svg>