<svg width="24" height="24" viewBox="0 0 24 24" fill="none" xmlns="http://www.w3.org/2000/svg">
<g clip-path="url(#clip0_2920_432)">
<path d="M15.6529 9.43238L15.6529 9.43239C15.767 9.85819 15.7565 10.2789 15.6424 10.6162C15.5285 10.9528 15.3063 11.2178 14.991 11.3023L15.6529 9.43238ZM15.6529 9.43238C15.5387 9.00657 15.3194 8.64748 15.0518 8.41238C14.785 8.17782 14.46 8.05945 14.1447 8.14393L14.1447 8.14393C13.8294 8.22841 13.6072 8.49341 13.4933 8.82999C13.3792 9.16737 13.3688 9.58803 13.4829 10.0139L13.4829 10.0139M15.6529 9.43238L13.4829 10.0139M13.4829 10.0139C13.5969 10.4397 13.8163 10.7988 14.0838 11.0339M13.4829 10.0139L14.0838 11.0339M14.0838 11.0339C14.3507 11.2684 14.6757 11.3868 14.991 11.3023L14.0838 11.0339Z" fill="#3E4A59" stroke="#3E4A59" stroke-width="0.2"/>
<path d="M8.21453 9.7328L8.21452 9.7328L9.03492 12.7945L9.0608 12.8911C9.0608 12.8911 9.06081 12.8911 9.06082 12.8911C9.37609 12.8067 9.59833 12.5417 9.71219 12.2051C9.82632 11.8677 9.83674 11.4471 9.72264 11.0213C9.60855 10.5954 9.38919 10.2364 9.12167 10.0012C8.85477 9.76669 8.5298 9.64832 8.21453 9.7328Z" fill="#3E4A59" stroke="#3E4A59" stroke-width="0.2"/>
<path d="M17.0465 15.3548L16.9582 15.3981L17.0465 15.3548L16.8579 14.9706C17.0294 14.8287 17.194 14.6814 17.3513 14.5291C17.6955 14.1959 17.7044 13.6467 17.3712 13.3025C17.038 12.9583 16.4887 12.9494 16.1445 13.2826C15.3005 14.0997 14.1673 14.7586 12.8347 15.1157C11.5021 15.4728 10.1912 15.4688 9.05169 15.1831L9.02738 15.2801L9.05169 15.1831C8.58698 15.0667 8.11585 15.349 7.99938 15.8137C7.88291 16.2784 8.16521 16.7495 8.62991 16.866C9.82844 17.1664 11.1489 17.2134 12.4875 16.9703L12.7336 17.4717L12.8234 17.4277L12.7336 17.4717C13.3124 18.6507 14.7308 19.1464 15.9179 18.5844C17.1291 18.011 17.637 16.5577 17.0465 15.3548ZM14.2911 16.7072L14.1901 16.5016C14.6143 16.343 15.0203 16.1577 15.4055 15.9488L15.4891 16.1192L15.4891 16.1192C15.6531 16.4533 15.512 16.8571 15.1756 17.0164C14.8459 17.1725 14.4518 17.0348 14.2911 16.7072L14.2911 16.7072ZM2.63488 12C2.63488 6.82779 6.82779 2.63488 12 2.63488C17.1722 2.63488 21.3651 6.82779 21.3651 12C21.3651 17.1722 17.1722 21.3651 12 21.3651C6.82779 21.3651 2.63488 17.1722 2.63488 12ZM12 0.9C5.86964 0.9 0.9 5.86964 0.9 12C0.9 18.1304 5.86964 23.1 12 23.1C18.1304 23.1 23.1 18.1304 23.1 12C23.1 5.86964 18.1304 0.9 12 0.9Z" fill="#3E4A59" stroke="#3E4A59" stroke-width="0.2"/>
</g>
<defs>
<clipPath id="clip0_2920_432">
<rect width="24" height="24" fill="white"/>
</clipPath>
</defs>
</svg>
