<svg width="52" height="52" viewBox="0 0 52 52" fill="none" xmlns="http://www.w3.org/2000/svg">
<path d="M35.4823 3.71387H6.83874C3.75027 3.71387 1.23828 6.22583 1.23828 9.31427V34.4145C1.23828 35.6033 2.58268 36.2734 3.53166 35.5956L11.5087 29.9042C12.178 29.4274 12.9654 29.1749 13.7876 29.1749H31.3328C34.4212 29.1749 36.9332 26.663 36.9332 23.5745V5.16475C36.9332 4.36386 36.2832 3.71387 35.4823 3.71387ZM28.4348 21.2899H11.6712C10.8703 21.2899 10.2203 20.6408 10.2203 19.839C10.2203 19.0381 10.8703 18.3881 11.6712 18.3881H28.4348C29.2357 18.3881 29.8857 19.0381 29.8857 19.839C29.8857 20.6408 29.2357 21.2899 28.4348 21.2899ZM28.4348 14.5191H11.6712C10.8703 14.5191 10.2203 13.87 10.2203 13.0682C10.2203 12.2673 10.8703 11.6173 11.6712 11.6173H28.4348C29.2357 11.6173 29.8857 12.2673 29.8857 13.0682C29.8857 13.87 29.2357 14.5191 28.4348 14.5191Z" fill="#8F6DFF"/>
<path d="M50.7618 20.5691V45.6685C50.7618 46.8492 49.4242 47.5322 48.4684 46.8495L40.4914 41.1591C39.8221 40.6823 39.0347 40.4298 38.2126 40.4298H20.6674C17.5789 40.4298 15.0669 37.9169 15.0669 34.8284V32.0775H31.3324C36.0207 32.0775 39.8347 28.2637 39.8347 23.5754V14.9678H45.1614C48.2498 14.9678 50.7618 17.4807 50.7618 20.5691Z" fill="#8F6DFF"/>
</svg>
