<svg width="52" height="52" viewBox="0 0 52 52" fill="none" xmlns="http://www.w3.org/2000/svg">
<path fill-rule="evenodd" clip-rule="evenodd" d="M17.3657 24.2049C20.0929 18.8382 26.3102 17.604 30.287 19.5288C34.6058 21.6159 36.4758 27.5526 34.6913 34.5701C33.4855 39.312 28.9563 45.0645 24.8918 49.1202C24.688 49.3237 24.4343 49.4701 24.1561 49.5448C23.8779 49.6194 23.585 49.6197 23.3067 49.5455C17.7581 48.0657 10.9598 45.3473 7.54424 41.844C2.49103 36.6571 1.14058 30.5845 3.83709 26.6165C6.31875 22.9597 12.3212 20.9209 17.3657 24.2049ZM13.2222 11.0491C13.3207 11.2424 13.3799 11.4534 13.3964 11.6698C13.4129 11.8861 13.3864 12.1036 13.3185 12.3097C13.2505 12.5158 13.1425 12.7064 13.0005 12.8705C12.8586 13.0347 12.6855 13.1691 12.4914 13.266C12.2972 13.3629 12.0858 13.4204 11.8693 13.4353C11.6528 13.4501 11.4356 13.4219 11.23 13.3524C11.0245 13.2829 10.8347 13.1733 10.6717 13.0301C10.5087 12.8869 10.3756 12.7128 10.2802 12.5179L9.18407 10.3256C9.08563 10.1322 9.02645 9.92127 9.00993 9.7049C8.99342 9.48853 9.0199 9.27103 9.08784 9.06495C9.15578 8.85886 9.26384 8.66827 9.4058 8.50414C9.54776 8.34002 9.7208 8.20562 9.91494 8.10869C10.1091 8.01177 10.3205 7.95423 10.537 7.93939C10.7535 7.92456 10.9708 7.95273 11.1763 8.02227C11.3819 8.09181 11.5716 8.20135 11.7346 8.34458C11.8976 8.48781 12.0307 8.66189 12.1261 8.85678L13.2222 11.0491ZM37.6837 41.0176C37.5853 40.8242 37.5261 40.6132 37.5096 40.3968C37.4931 40.1805 37.5196 39.963 37.5875 39.7569C37.6554 39.5508 37.7635 39.3602 37.9055 39.1961C38.0474 39.032 38.2205 38.8976 38.4146 38.8006C38.6087 38.7037 38.8202 38.6462 39.0366 38.6313C39.2531 38.6165 39.4704 38.6447 39.676 38.7142C39.8815 38.7838 40.0713 38.8933 40.2343 39.0365C40.3973 39.1798 40.5304 39.3538 40.6258 39.5487L41.7219 41.741C41.8203 41.9344 41.8795 42.1454 41.896 42.3617C41.9126 42.5781 41.8861 42.7956 41.8181 43.0017C41.7502 43.2078 41.6421 43.3984 41.5002 43.5625C41.3582 43.7266 41.1852 43.861 40.991 43.9579C40.7969 44.0549 40.5855 44.1124 40.369 44.1272C40.1525 44.1421 39.9352 44.1139 39.7297 44.0443C39.5241 43.9748 39.3344 43.8653 39.1713 43.722C39.0083 43.5788 38.8753 43.4047 38.7799 43.2098L37.6837 41.0176ZM8.10108 20.9275C7.90769 21.0259 7.69673 21.0851 7.48037 21.1016C7.264 21.1181 7.0465 21.0917 6.84042 21.0237C6.63433 20.9558 6.44373 20.8477 6.27961 20.7058C6.11549 20.5638 5.98109 20.3908 5.88416 20.1966C5.78723 20.0025 5.72969 19.7911 5.71486 19.5746C5.70003 19.3581 5.7282 19.1408 5.79774 18.9352C5.86728 18.7297 5.97682 18.5399 6.12005 18.3769C6.26328 18.2139 6.43736 18.0809 6.63225 17.9854L8.82453 16.8893C9.01792 16.7909 9.22888 16.7317 9.44524 16.7152C9.66161 16.6987 9.87911 16.7251 10.0852 16.7931C10.2913 16.861 10.4819 16.9691 10.646 17.111C10.8101 17.253 10.9445 17.426 11.0414 17.6202C11.1384 17.8143 11.1959 18.0257 11.2107 18.2422C11.2256 18.4587 11.1974 18.676 11.1279 18.8815C11.0583 19.0871 10.9488 19.2769 10.8056 19.4399C10.6623 19.6029 10.4883 19.7359 10.2934 19.8313L8.10108 20.9275ZM42.8049 31.1391C42.9983 31.0407 43.2092 30.9815 43.4256 30.965C43.642 30.9485 43.8595 30.975 44.0656 31.0429C44.2716 31.1108 44.4622 31.2189 44.6264 31.3609C44.7905 31.5028 44.9249 31.6759 45.0218 31.87C45.1187 32.0642 45.1763 32.2756 45.1911 32.4921C45.2059 32.7085 45.1778 32.9258 45.1082 33.1314C45.0387 33.3369 44.9292 33.5267 44.7859 33.6897C44.6427 33.8527 44.4686 33.9858 44.2737 34.0812L42.0814 35.1773C41.8881 35.2758 41.6771 35.3349 41.4607 35.3514C41.2444 35.368 41.0269 35.3415 40.8208 35.2735C40.6147 35.2056 40.4241 35.0975 40.26 34.9556C40.0959 34.8136 39.9615 34.6406 39.8645 34.4464C39.7676 34.2523 39.7101 34.0409 39.6952 33.8244C39.6804 33.6079 39.7086 33.3906 39.7781 33.1851C39.8476 32.9795 39.9572 32.7898 40.1004 32.6268C40.2436 32.4637 40.4177 32.3307 40.6126 32.2353L42.8049 31.1391Z" fill="#8F6DFF"/>
<path fill-rule="evenodd" clip-rule="evenodd" d="M17.802 19.9457C17.6103 19.4294 17.4463 18.9032 17.311 18.3694C15.5286 11.3519 17.3965 5.4196 21.7153 3.33035C25.6921 1.40553 31.9094 2.63979 34.6366 8.00868C39.681 4.72245 45.6835 6.76347 48.1651 10.418C50.8595 14.386 49.5068 20.4543 44.4733 25.6302C42.7875 27.3622 40.3058 28.9231 37.5326 30.2187C37.7386 24.2272 35.2723 19.505 31.2429 17.5539C27.3253 15.6597 21.6188 16.2275 17.802 19.9457Z" fill="#8F6DFF"/>
</svg>
