<svg width="56" height="56" viewBox="0 0 56 56" fill="none" xmlns="http://www.w3.org/2000/svg">
<path d="M54 5H26.4V11.1333H21.5189C19.393 11.1333 17.3341 11.7567 15.5651 12.936L11.0667 15.9349V14.2H1.66223V38.7333H11.0667V36.9984L15.5651 39.9974C17.3341 41.1766 19.393 41.8 21.5189 41.8H26.4V51H54V5ZM50.9333 47.9333H48.1304C48.5932 46.6286 49.6286 45.5932 50.9333 45.1304V47.9333ZM50.9333 8.06667V10.8696C49.6286 10.4068 48.5932 9.37143 48.1304 8.06667H50.9333ZM29.4667 8.06667H32.2696C31.8068 9.37143 30.7714 10.4068 29.4667 10.8696V8.06667ZM4.7289 35.6667V17.2667H8.00001V35.6667H4.7289ZM21.5189 38.7333C20.0051 38.7348 18.5249 38.2867 17.2661 37.4457L11.0667 33.3128V19.6205L17.2661 15.4876C18.5249 14.6467 20.0051 14.1985 21.5189 14.2H38.404C37.7711 15.9849 36.0658 17.2667 34.0668 17.2667L26.4001 17.2666V18.8C26.4001 21.4644 25.4518 23.3806 23.5008 24.6576C21.6929 25.8412 18.9839 26.4667 15.6667 26.4667V29.5333C19.6381 29.5333 22.839 28.7561 25.1803 27.2234C25.6109 26.9424 26.0187 26.6278 26.4 26.2828V38.7333H21.5189ZM29.4667 47.9333V45.1304C30.7714 45.5932 31.8068 46.6286 32.2696 47.9333H29.4667ZM35.4456 47.9334C34.8345 44.9337 32.4663 42.5656 29.4667 41.9542V20.3332L34.0667 20.3333C38.2941 20.3333 41.7333 16.8941 41.7333 12.6667V11.1333H34.0625C34.7336 10.2414 35.2149 9.19908 35.4457 8.06667H44.9543C45.5655 11.0663 47.9337 13.4344 50.9333 14.0457V41.9544C47.9337 42.5656 45.5655 44.9338 44.9543 47.9334H35.4456Z" fill="#8F6DFF"/>
<path d="M39.9268 34.9629C40.5555 34.9629 41.0605 35.4774 41.0605 36.1064C41.0604 36.7354 40.5555 37.25 39.9268 37.25C39.2983 37.2497 38.794 36.7352 38.7939 36.1064C38.7939 35.4776 39.2982 34.9631 39.9268 34.9629ZM39.9404 23.75C41.223 23.75 42.2741 24.1043 43.0664 24.8369L43.209 24.9746C43.8996 25.674 44.2499 26.515 44.25 27.4873C44.25 28.086 44.1104 28.643 43.8311 29.1514L43.8301 29.1504C43.5858 29.5956 43.1495 30.1076 42.5361 30.6836L42.2627 30.9346C41.8829 31.2754 41.612 31.5392 41.4424 31.7305L41.3066 31.8975C41.2046 32.0385 41.1212 32.1972 41.0576 32.374L41.001 32.5566C40.9646 32.6928 40.9344 32.8861 40.9131 33.1406L40.8945 33.415C40.8748 33.7975 40.5606 34.1016 40.1768 34.1016H39.8457V34.1025H39.5957C39.1976 34.1025 38.8799 33.7766 38.8799 33.3809C38.8799 32.7427 38.9698 32.1789 39.1553 31.6963C39.2931 31.3286 39.5134 30.9661 39.8076 30.6074L39.8086 30.6064L40.0039 30.3867C40.2298 30.1467 40.5463 29.8453 40.9502 29.4854L41.3125 29.1494C41.6354 28.8354 41.8424 28.5872 41.9473 28.4023L42.0381 28.2139C42.1163 28.021 42.1552 27.8147 42.1553 27.5928C42.1553 27.1224 41.9992 26.7011 41.6738 26.3223L41.5234 26.1621C41.1015 25.748 40.5871 25.541 39.9658 25.541C39.3634 25.5411 38.874 25.7293 38.4824 26.0996L38.4834 26.1006C38.2364 26.3344 38.0332 26.661 37.8848 27.0918L37.8252 27.2832C37.6809 27.7826 37.1976 28.1049 36.6836 28.043V28.042C36.033 27.9636 35.6086 27.3148 35.793 26.6836L35.8867 26.3965C36.1218 25.7415 36.478 25.1954 36.959 24.7656L37.1055 24.6416C37.8502 24.0409 38.8025 23.75 39.9404 23.75Z" fill="#8F6DFF" stroke="#8F6DFF" stroke-width="0.5"/>
</svg>
