<svg width="56" height="56" viewBox="0 0 56 56" fill="none" xmlns="http://www.w3.org/2000/svg">
<path d="M48.8116 45.9989H39.4066C38.959 45.9989 38.5298 45.8211 38.2134 45.5046C37.8969 45.1881 37.7191 44.7589 37.7191 44.3114C37.7191 43.8638 37.8969 43.4346 38.2134 43.1181C38.5298 42.8017 38.959 42.6239 39.4066 42.6239H47.6281L50.9018 33.624H5.09414L8.36788 42.6239H16.5916C17.0392 42.6239 17.4684 42.8017 17.7849 43.1181C18.1013 43.4346 18.2791 43.8638 18.2791 44.3114C18.2791 44.7589 18.1013 45.1881 17.7849 45.5046C17.4684 45.8211 17.0392 45.9989 16.5916 45.9989H7.18663C6.8401 45.9989 6.50196 45.8922 6.21816 45.6934C5.93437 45.4945 5.71867 45.2131 5.60039 44.8874L1.10039 32.5125C1.00837 32.2576 0.979012 31.9843 1.01479 31.7157C1.05057 31.447 1.15044 31.191 1.30597 30.969C1.4615 30.7471 1.66813 30.5658 1.90843 30.4405C2.14872 30.3152 2.41563 30.2495 2.68664 30.249H53.3116C53.583 30.2489 53.8505 30.3142 54.0914 30.4395C54.3322 30.5648 54.5392 30.7463 54.6949 30.9687C54.8506 31.1911 54.9503 31.4477 54.9856 31.7169C55.021 31.986 54.9909 32.2597 54.8978 32.5148L50.3978 44.8896C50.2792 45.2149 50.0633 45.4958 49.7796 45.6943C49.4958 45.8927 49.1579 45.9991 48.8116 45.9989Z" fill="#8F6DFF"/>
<path d="M37.5638 54.9999C37.3206 54.9994 37.0804 54.9465 36.8595 54.8447C36.6387 54.743 36.4423 54.5948 36.2839 54.4103C36.1254 54.2258 36.0086 54.0093 35.9414 53.7756C35.8742 53.5419 35.8581 53.2964 35.8943 53.056L37.8451 40.3751H18.1531L20.1039 53.056C20.1442 53.2778 20.1398 53.5055 20.0907 53.7256C20.0416 53.9457 19.9489 54.1537 19.818 54.3373C19.6872 54.521 19.5208 54.6766 19.3289 54.7949C19.1369 54.9131 18.9231 54.9918 18.7002 55.026C18.4774 55.0603 18.2499 55.0496 18.0312 54.9945C17.8126 54.9394 17.6072 54.841 17.4272 54.7052C17.2472 54.5693 17.0962 54.3988 16.9832 54.2036C16.8702 54.0085 16.7975 53.7927 16.7694 53.5689L14.5194 38.9441C14.4824 38.7037 14.4978 38.4581 14.5646 38.2242C14.6314 37.9904 14.748 37.7737 14.9063 37.589C15.0647 37.4044 15.2611 37.2562 15.482 37.1545C15.703 37.0529 15.9434 37.0002 16.1866 37.0001H39.8116C40.055 37.0002 40.2956 37.0529 40.5168 37.1547C40.7379 37.2564 40.9345 37.4049 41.0928 37.5898C41.2512 37.7747 41.3677 37.9916 41.4344 38.2258C41.501 38.46 41.5162 38.7058 41.4788 38.9463L39.2288 53.5712C39.1676 53.9689 38.9661 54.3316 38.6607 54.5936C38.3553 54.8557 37.9662 54.9998 37.5638 54.9999ZM51.6241 33.0627C51.1765 33.0627 50.7473 32.8849 50.4308 32.5684C50.1144 32.2519 49.9366 31.8227 49.9366 31.3752C49.9245 29.1642 49.3474 26.993 48.2601 25.0677C47.1729 23.1425 45.6115 21.5271 43.7243 20.375C43.3421 20.142 43.0681 19.7667 42.9626 19.3317C42.8572 18.8966 42.9288 18.4375 43.1618 18.0553C43.3949 17.6731 43.7702 17.3991 44.2052 17.2936C44.6402 17.1881 45.0994 17.2598 45.4816 17.4928C50.3101 20.4358 53.3093 25.7547 53.3093 31.3752C53.3096 31.5967 53.2662 31.8161 53.1817 32.0208C53.0971 32.2255 52.973 32.4115 52.8165 32.5683C52.66 32.725 52.4741 32.8493 52.2695 32.9342C52.0649 33.019 51.8456 33.0627 51.6241 33.0627Z" fill="#8F6DFF"/>
<path d="M42.624 21.2499C44.4879 21.2499 45.999 19.7389 45.999 17.875C45.999 16.011 44.4879 14.5 42.624 14.5C40.76 14.5 39.249 16.011 39.249 17.875C39.249 19.7389 40.76 21.2499 42.624 21.2499Z" fill="#8F6DFF"/>
<path d="M27.9991 18.9998C23.0356 18.9998 18.9991 14.9634 18.9991 9.99991C18.9991 5.03646 23.0356 1 27.9991 1C32.9626 1 36.9991 5.03646 36.9991 9.99991C36.9991 14.9634 32.9626 18.9998 27.9991 18.9998ZM27.9991 4.37497C24.8963 4.37497 22.3741 6.89944 22.3741 9.99991C22.3741 13.1004 24.8963 15.6248 27.9991 15.6248C31.1018 15.6248 33.6241 13.1004 33.6241 9.99991C33.6241 6.89944 31.1018 4.37497 27.9991 4.37497ZM44.874 33.6247C44.4265 33.6247 43.9973 33.4469 43.6808 33.1304C43.3643 32.8139 43.1865 32.3847 43.1865 31.9372C43.1842 29.9985 42.413 28.14 41.0421 26.7691C39.6713 25.3983 37.8127 24.6271 35.8741 24.6248H20.1241C18.1854 24.6271 16.3268 25.3983 14.956 26.7691C13.5851 28.14 12.814 29.9985 12.8116 31.9372C12.8116 32.3847 12.6338 32.8139 12.3173 33.1304C12.0009 33.4469 11.5716 33.6247 11.1241 33.6247C10.6765 33.6247 10.2473 33.4469 9.93084 33.1304C9.61437 32.8139 9.43658 32.3847 9.43658 31.9372C9.44016 29.1038 10.5673 26.3875 12.5708 24.384C14.5743 22.3805 17.2907 21.2534 20.1241 21.2498H35.8741C38.7075 21.2534 41.4238 22.3805 43.4273 24.384C45.4308 26.3875 46.558 29.1038 46.5615 31.9372C46.5615 32.3847 46.3838 32.8139 46.0673 33.1304C45.7508 33.4469 45.3216 33.6247 44.874 33.6247Z" fill="#8F6DFF"/>
<path d="M28.002 41.9502C28.2289 41.9502 28.4467 42.0389 28.6074 42.1973L28.665 42.2598C28.7899 42.4102 28.8594 42.5996 28.8594 42.7959V43.3428H28.9297C29.208 43.3428 29.4841 43.3969 29.7412 43.502L29.9297 43.5898C30.113 43.6865 30.2812 43.8096 30.4287 43.9551L30.5684 44.1074C30.7003 44.266 30.8087 44.4426 30.8887 44.6328L30.959 44.8271C31.0193 45.0234 31.0498 45.2278 31.0498 45.4336C31.0498 45.6301 30.9805 45.8193 30.8555 45.9697L30.7988 46.0322C30.6382 46.1906 30.4203 46.2792 30.1934 46.2793C29.9947 46.2793 29.8029 46.2111 29.6504 46.0879L29.5869 46.0322C29.4264 45.8739 29.3362 45.6588 29.3359 45.4346L29.3271 45.3564C29.3164 45.3052 29.2962 45.2564 29.2666 45.2129L29.2158 45.1523C29.1588 45.0962 29.0868 45.0578 29.0088 45.042L28.9297 45.0342H27.0742C26.993 45.0342 26.9143 45.0581 26.8477 45.1016L26.7852 45.1514C26.7084 45.2263 26.665 45.3284 26.6641 45.4346V46.7549L26.6719 46.833C26.6771 46.8587 26.685 46.8839 26.6953 46.9082L26.7334 46.9775C26.7482 46.9992 26.7652 47.0196 26.7842 47.0381L26.8457 47.0879C26.868 47.1025 26.892 47.115 26.917 47.125C26.9666 47.1448 27.0197 47.1547 27.0732 47.1543H28.9297L29.1396 47.165C29.6243 47.2134 30.0801 47.4248 30.4277 47.7676L30.5684 47.9209C30.8774 48.2927 31.0488 48.76 31.0498 49.2451V50.5664C31.0498 50.7722 31.0193 50.9766 30.959 51.1729L30.8887 51.3672C30.8087 51.5574 30.7003 51.734 30.5684 51.8926L30.4287 52.0449C30.2812 52.1904 30.113 52.3135 29.9297 52.4102L29.7412 52.498C29.4841 52.6031 29.208 52.6572 28.9297 52.6572H28.8594V53.2041C28.8594 53.4004 28.7899 53.5898 28.665 53.7402L28.6074 53.8027C28.4467 53.9611 28.2289 54.0498 28.002 54.0498C27.8032 54.0498 27.6115 53.9817 27.459 53.8584L27.3965 53.8027C27.2357 53.6442 27.1455 53.4286 27.1455 53.2041V52.6572H27.0742C26.5822 52.6572 26.1072 52.4892 25.7295 52.1846L25.5742 52.0459C25.1759 51.6539 24.9513 51.1216 24.9502 50.5664L24.9541 50.4824C24.9737 50.2887 25.0605 50.1065 25.2012 49.9678L25.2637 49.9121C25.4162 49.7888 25.6079 49.7208 25.8066 49.7207C26.0337 49.7207 26.2523 49.8092 26.4131 49.9678L26.4697 50.0303C26.5947 50.1807 26.6641 50.37 26.6641 50.5664L26.6719 50.6445C26.6771 50.6702 26.685 50.6954 26.6953 50.7197L26.7334 50.7891C26.7482 50.8108 26.7652 50.8311 26.7842 50.8496L26.8457 50.8994C26.8681 50.914 26.892 50.9265 26.917 50.9365L26.9941 50.959C27.0201 50.9638 27.0466 50.966 27.0732 50.9658H28.9297C29.0376 50.9658 29.1417 50.9237 29.2178 50.8486L29.2676 50.7881C29.3118 50.7229 29.3359 50.6459 29.3359 50.5664V49.2461L29.3271 49.168C29.3165 49.117 29.296 49.0687 29.2666 49.0254L29.2158 48.9639C29.1588 48.9078 29.0867 48.8703 29.0088 48.8545L28.9297 48.8457H27.0742C26.5822 48.8457 26.1072 48.6776 25.7295 48.373L25.5742 48.2334C25.176 47.8415 24.9513 47.31 24.9502 46.7549V45.4336L24.9609 45.2266C25.0101 44.7475 25.2258 44.297 25.5742 43.9541L25.7295 43.8154C26.1072 43.5108 26.5822 43.3428 27.0742 43.3428H27.1455V42.7959C27.1455 42.5714 27.2357 42.3558 27.3965 42.1973L27.459 42.1416C27.6115 42.0183 27.8032 41.9502 28.002 41.9502Z" fill="#8F6DFF" stroke="#8F6DFF" stroke-width="0.1"/>
</svg>
