<svg width="56" height="56" viewBox="0 0 56 56" fill="none" xmlns="http://www.w3.org/2000/svg">
<path d="M54 5L26.4 5V11.1333H21.5189C19.393 11.1333 17.3341 11.7567 15.5651 12.936L11.0667 15.9349V14.2L1.66223 14.2V38.7333H11.0667V36.9984L15.5651 39.9974C17.3341 41.1766 19.393 41.8 21.5189 41.8H26.4V51H54V5ZM50.9333 47.9333H48.1304C48.5932 46.6286 49.6286 45.5932 50.9333 45.1304V47.9333ZM50.9333 8.06667V10.8696C49.6286 10.4068 48.5932 9.37143 48.1304 8.06667H50.9333ZM29.4667 8.06667H32.2696C31.8068 9.37143 30.7714 10.4068 29.4667 10.8696V8.06667ZM4.72889 35.6667V17.2667H8V35.6667H4.72889ZM21.5189 38.7333C20.0051 38.7348 18.5249 38.2867 17.2661 37.4457L11.0667 33.3128V19.6205L17.2661 15.4876C18.5249 14.6467 20.0051 14.1985 21.5189 14.2H38.404C37.7711 15.9849 36.0658 17.2667 34.0668 17.2667L26.4001 17.2666V18.8C26.4001 21.4644 25.4518 23.3806 23.5008 24.6576C21.6929 25.8412 18.9839 26.4667 15.6667 26.4667V29.5333C19.6381 29.5333 22.839 28.7561 25.1803 27.2234C25.6109 26.9424 26.0187 26.6278 26.4 26.2828V38.7333H21.5189ZM29.4667 47.9333V45.1304C30.7714 45.5932 31.8068 46.6286 32.2696 47.9333H29.4667ZM35.4456 47.9334C34.8345 44.9337 32.4663 42.5656 29.4667 41.9543V20.3332L34.0667 20.3333C38.2941 20.3333 41.7333 16.8941 41.7333 12.6667V11.1333H34.0625C34.7336 10.2414 35.2149 9.19908 35.4457 8.06667H44.9543C45.5655 11.0663 47.9337 13.4344 50.9333 14.0457V41.9544C47.9337 42.5656 45.5655 44.9338 44.9543 47.9334H35.4456Z" fill="#8F6DFF"/>
<path d="M46.6894 29.1201L45.7373 28.0141C45.5553 27.804 45.4083 27.412 45.4083 27.132V25.9419C45.4083 25.1999 44.7992 24.5908 44.0572 24.5908H42.8671C42.5941 24.5908 42.1951 24.4438 41.9851 24.2618L40.879 23.3098C40.396 22.8967 39.6049 22.8967 39.1149 23.3098L38.0158 24.2688C37.8058 24.4438 37.4068 24.5908 37.1338 24.5908H35.9227C35.1806 24.5908 34.5716 25.1999 34.5716 25.9419V27.139C34.5716 27.412 34.4246 27.804 34.2496 28.0141L33.3045 29.1271C32.8985 29.6102 32.8985 30.3942 33.3045 30.8772L34.2496 31.9903C34.4246 32.2003 34.5716 32.5923 34.5716 32.8654V34.0624C34.5716 34.8045 35.1806 35.4135 35.9227 35.4135H37.1338C37.4068 35.4135 37.8058 35.5605 38.0158 35.7425L39.1219 36.6946C39.6049 37.1076 40.396 37.1076 40.886 36.6946L41.9921 35.7425C42.2021 35.5605 42.5941 35.4135 42.8741 35.4135H44.0642C44.8062 35.4135 45.4153 34.8045 45.4153 34.0624V32.8724C45.4153 32.5993 45.5623 32.2003 45.7443 31.9903L46.6964 30.8842C47.1024 30.4012 47.1024 29.6032 46.6894 29.1201ZM42.9091 28.6791L39.5279 32.0603C39.4295 32.1586 39.296 32.2139 39.1569 32.2139C39.0177 32.2139 38.8843 32.1586 38.7859 32.0603L37.0918 30.3662C36.8887 30.1632 36.8887 29.8272 37.0918 29.6242C37.2948 29.4211 37.6308 29.4211 37.8338 29.6242L39.1569 30.9472L42.1671 27.9371C42.3701 27.734 42.7061 27.734 42.9091 27.9371C43.1121 28.1401 43.1121 28.4761 42.9091 28.6791Z" fill="#8F6DFF"/>
</svg>
