<svg width="52" height="52" viewBox="0 0 52 52" fill="none" xmlns="http://www.w3.org/2000/svg">
<g clip-path="url(#clip0_3034_28)">
<path d="M28.8516 6.93359H12.7484C3.56955 6.93359 0 9.83173 0 17.2841V34.7164C0 39.7283 3.35484 45.0669 12.7484 45.0669H28.8516C38.0305 45.0669 41.6 42.1688 41.6 34.7164V17.2841C41.6 9.83173 38.0305 6.93359 28.8516 6.93359Z" fill="#8F6DFF"/>
<path d="M32.9334 23.4666C34.848 23.4666 36.4001 21.9145 36.4001 19.9999C36.4001 18.0853 34.848 16.5332 32.9334 16.5332C31.0188 16.5332 29.4668 18.0853 29.4668 19.9999C29.4668 21.9145 31.0188 23.4666 32.9334 23.4666Z" fill="white"/>
<path d="M49.7207 14.2749C48.8713 13.8528 47.0897 13.3704 44.6657 15.0186L41.5996 17.109C41.5996 17.3339 41.5996 17.899 41.5996 18.2005V34.051C41.5996 34.3525 41.5996 34.5962 41.5996 34.8776L44.6657 36.968C45.9502 37.8525 47.0689 38.1339 47.9598 38.1339C48.7263 38.1339 49.3271 37.9329 49.7207 37.7319C50.5701 37.3097 51.9996 36.164 51.9996 33.2897V18.717C51.9996 15.8427 50.5701 14.697 49.7207 14.2749Z" fill="#8F6DFF"/>
</g>
<defs>
<clipPath id="clip0_3034_28">
<rect width="52" height="52" fill="white"/>
</clipPath>
</defs>
</svg>
